<svg version="1.1" id="Layer_1" xmlns="http://www.w3.org/2000/svg" xmlns:xlink="http://www.w3.org/1999/xlink" x="0px" y="0px"
	 width="100%" viewBox="0 0 577 433" enable-background="new 0 0 577 433" xml:space="preserve">
<path fill="#000000" opacity="1.000000" stroke="none" 
	d="
M303.000000,434.000000 
	C202.000031,434.000000 101.500046,434.000000 1.000054,434.000000 
	C1.000036,289.666718 1.000036,145.333450 1.000018,1.000131 
	C193.333237,1.000088 385.666473,1.000088 577.999756,1.000044 
	C577.999878,145.333191 577.999878,289.666382 577.999939,433.999786 
	C486.500000,434.000000 395.000000,434.000000 303.000000,434.000000 
M344.983978,337.984344 
	C344.983978,337.984344 344.960052,337.914978 344.461365,338.078888 
	C344.364838,338.382965 344.268311,338.687073 343.803833,339.647491 
	C342.199982,338.827667 340.596161,338.007843 338.344971,337.018097 
	C337.899597,336.993195 337.454254,336.968262 336.618896,336.393066 
	C335.402374,336.229828 334.132172,336.229950 332.985870,335.853180 
	C332.017731,335.534943 331.193237,334.779724 330.305206,334.217896 
	C330.167633,335.154358 330.029816,336.090759 329.892548,337.027252 
	C329.753235,337.977600 329.767609,338.983215 329.448639,339.868744 
	C328.151825,343.468719 329.092621,345.041840 333.165771,345.050995 
	C335.434845,345.056061 337.701447,346.193542 340.679535,346.939301 
	C342.156982,345.980743 343.634460,345.022217 345.747223,343.712830 
	C346.356628,342.459717 347.287811,341.248566 347.458832,339.938263 
	C347.567352,339.106720 346.545166,338.127625 345.502014,337.103027 
	C345.306244,337.388763 345.110474,337.674500 344.983978,337.984344 
M225.116058,342.026337 
	C223.992264,342.258087 222.868469,342.489838 221.046036,342.660553 
	C220.889969,340.581268 220.733902,338.502014 220.535248,335.855438 
	C220.068802,335.630646 218.539642,334.893646 216.221985,334.360321 
	C215.623138,334.580322 215.021927,334.794067 214.425858,335.021362 
	C211.977127,335.955078 207.503708,332.796844 207.153839,337.433319 
	C206.797607,342.154144 211.786758,340.227753 214.702881,341.638000 
	C212.251740,341.887909 210.165009,342.100677 206.879501,342.435669 
	C211.109055,345.979706 214.543381,345.304443 218.816727,344.045593 
	C219.776016,343.570251 220.735306,343.094910 222.506699,342.956909 
	C223.614273,342.909424 224.721863,342.861938 226.390564,342.948212 
	C226.580322,342.917114 226.770081,342.886047 227.608856,343.020142 
	C228.392868,343.385651 229.176880,343.751160 230.398788,344.773529 
	C232.910385,344.463959 235.421967,344.154388 238.490189,344.039062 
	C238.980103,344.295776 239.470032,344.552490 240.815308,344.935730 
	C249.771927,344.943451 258.733398,344.773438 267.683563,345.018219 
	C274.190613,345.196228 274.286835,345.329681 274.069031,338.916168 
	C274.045441,338.221039 274.310089,337.516083 274.476257,336.627411 
	C272.783325,336.790192 271.527008,337.008575 270.269470,337.015564 
	C263.708344,337.052094 257.144958,336.937317 250.586349,337.071350 
	C246.351913,337.157867 242.124374,337.581665 237.357376,337.800690 
	C236.905136,337.599304 236.452881,337.397888 235.149094,337.064758 
	C233.430634,337.095123 231.712173,337.125488 229.351974,337.152802 
	C228.583679,337.398254 227.815384,337.643707 226.620926,337.357971 
	C226.358292,338.923370 226.095657,340.488770 225.116058,342.026337 
M166.041931,344.344330 
	C166.157883,344.634216 166.371689,344.786560 167.534058,344.949432 
	C171.650345,344.841156 175.964020,345.212616 177.307755,339.703888 
	C177.417786,339.252838 179.516907,339.287018 180.245209,339.168427 
	C181.025528,341.094666 181.578964,342.460876 182.803284,343.602112 
	C182.837509,342.643768 182.871735,341.685394 183.041550,340.604523 
	C183.041550,340.604523 182.925888,340.463043 183.688751,340.120880 
	C184.117981,341.417450 184.377869,342.812347 185.049240,343.968262 
	C185.375610,344.530151 186.471558,344.645020 187.219116,344.962280 
	C187.136032,344.567688 187.052948,344.173096 186.991486,343.106201 
	C187.008438,342.432800 187.025391,341.759430 187.821732,341.036743 
	C189.933655,345.128876 192.919189,346.484924 197.820343,344.332764 
	C199.176804,344.574036 200.533279,344.815277 201.737000,345.029388 
	C201.015259,342.702820 200.557617,341.094849 200.014832,339.516113 
	C199.495453,338.005432 199.686310,335.426941 195.944473,337.015564 
	C193.000839,337.320862 190.057190,337.626160 186.728699,337.291138 
	C185.499176,337.230591 184.269638,337.170074 182.169449,336.968506 
	C176.875946,337.023865 171.582428,337.079224 165.648575,336.956024 
	C165.098557,336.687378 164.548523,336.418732 163.327194,336.179901 
	C163.061340,336.342499 162.805817,336.528198 162.523697,336.654480 
	C162.431458,336.695770 162.185471,336.616028 162.153336,336.534821 
	C161.818161,335.687683 161.300415,334.063721 161.228638,334.083588 
	C158.109177,334.946899 155.029953,335.955566 151.230011,336.727325 
	C149.455856,336.806519 147.681686,336.885712 145.278870,336.821930 
	C144.725479,336.584076 144.172073,336.346222 143.413712,335.938965 
	C143.413712,335.938965 143.214050,336.114594 142.532913,336.023407 
	C141.971054,335.732605 141.409195,335.441803 139.951782,335.020477 
	C136.720978,335.020477 133.490158,335.020477 130.045837,335.020477 
	C130.045837,337.833679 129.818390,339.997986 130.142502,342.076294 
	C130.302765,343.103973 131.481873,344.774963 132.196136,344.772949 
	C135.051895,344.764954 137.906128,344.214874 141.487625,343.993866 
	C141.977448,343.984131 142.467285,343.974426 143.274017,344.800659 
	C148.518524,344.550293 153.763031,344.299896 159.752762,344.043335 
	C160.818176,343.338715 161.883606,342.634125 163.174850,342.550720 
	C164.107849,343.059235 165.040848,343.567749 166.017181,343.988892 
	C166.017181,343.988892 165.931519,343.942322 166.041931,344.344330 
M294.626190,150.149902 
	C287.419098,150.152267 280.211975,150.154633 272.156067,150.372086 
	C272.102325,170.269211 272.039368,190.166351 272.035034,210.063492 
	C272.034912,210.730484 272.627319,211.397614 272.941132,212.477005 
	C272.941132,212.477005 272.885071,212.885529 272.179474,212.938644 
	C270.826416,212.021088 269.473358,211.103546 268.490509,210.044662 
	C268.490509,210.044662 268.845337,209.868210 269.727173,209.684158 
	C269.821686,196.228729 269.948975,182.773224 269.920715,169.318054 
	C269.919159,168.591675 268.613220,167.868027 267.126343,167.398788 
	C260.802856,167.593613 254.479385,167.788422 247.744125,167.301910 
	C247.503815,167.670715 247.065414,168.032516 247.052109,168.409317 
	C246.704193,178.265137 246.355835,188.121811 246.194000,197.981384 
	C246.183746,198.606018 247.683823,199.255447 248.693512,200.208862 
	C248.926102,200.399139 248.977066,200.629578 248.030014,200.910965 
	C242.651459,199.568909 237.174118,198.519760 231.938400,196.754135 
	C229.527496,195.941132 228.534363,196.091324 227.195343,198.226288 
	C223.662598,203.858994 219.721329,209.236679 216.229767,214.893097 
	C215.342545,216.330414 214.984482,218.583588 215.435440,220.161102 
	C215.678085,221.009903 218.117966,221.410248 219.625992,221.680145 
	C222.733398,222.236298 225.944778,222.302948 229.001205,223.037643 
	C247.216736,227.416214 264.330017,234.443375 280.096741,244.647308 
	C285.294647,248.011292 288.487061,246.542892 291.053711,240.945221 
	C297.600220,226.667725 303.656708,212.055389 311.528748,198.518799 
	C327.833557,170.481216 346.304932,143.820755 366.271210,118.224815 
	C366.798126,117.549339 366.629639,116.331451 366.953522,114.325577 
	C364.631805,115.768097 363.036865,116.380150 361.954163,117.491318 
	C352.784332,126.901848 343.679657,136.376450 334.617981,145.891434 
	C331.192780,149.487976 328.009033,153.315750 324.553772,156.881668 
	C323.356110,158.117691 321.670593,158.880981 320.068298,159.505417 
	C320.068298,159.505417 320.012085,159.128357 320.797791,158.708405 
	C320.866821,150.768784 320.958618,142.829163 320.957458,134.889557 
	C320.957397,134.313889 320.282104,133.738312 319.004211,133.014832 
	C312.348755,133.063904 305.693268,133.112991 298.229950,133.037323 
	C297.865295,133.286407 297.175781,133.545639 297.183197,133.783112 
	C297.414215,141.178802 297.854919,148.570221 297.966644,155.966782 
	C298.111298,165.545410 298.001923,175.127853 298.001923,185.694748 
	C299.122040,184.264297 299.583435,183.675125 300.628143,182.849487 
	C301.376587,182.620880 302.125031,182.392273 302.639801,182.785767 
	C300.523773,185.199463 298.407745,187.613144 296.031586,189.107498 
	C296.024597,177.860596 296.054047,166.613403 295.966675,155.367126 
	C295.955139,153.883591 295.347473,152.404709 295.024414,150.996872 
	C295.024414,150.996872 295.037231,150.922974 294.626190,150.149902 
M444.637604,344.161316 
	C450.586395,346.781342 447.832581,341.829071 447.923950,340.036591 
	C448.005920,338.428284 446.962280,336.762665 446.415192,335.122314 
	C444.957214,336.062225 443.499268,337.002136 441.610657,337.263824 
	C439.461761,337.169891 437.312836,337.075928 434.935944,336.385681 
	C434.213226,336.640015 433.490540,336.894379 431.918427,337.017548 
	C430.430084,337.016998 428.862274,336.721100 427.474518,337.094391 
	C425.919067,337.512817 423.825073,338.177856 423.213104,339.373962 
	C422.036591,341.673431 423.722870,343.228455 426.323090,344.844635 
	C430.183960,344.844635 434.044830,344.844635 437.905701,344.844635 
	C437.604340,344.433838 437.302979,344.023071 437.001617,343.612274 
	C438.225067,342.350037 439.448517,341.087799 440.975189,340.503876 
	C441.610016,341.953339 438.169922,347.091766 444.637604,344.161316 
M152.979736,313.111420 
	C152.979736,310.182861 152.979736,307.254272 152.979736,303.877014 
	C140.816528,303.877014 129.007904,303.877014 117.136719,303.877014 
	C117.136719,300.622131 117.136719,297.829346 118.056541,295.037964 
	C127.869331,295.037994 137.682480,295.079895 147.494507,294.992645 
	C148.958588,294.979645 150.417267,294.359680 151.962524,293.180573 
	C151.643021,291.097687 151.323517,289.014771 150.597351,286.166077 
	C139.433807,286.100220 128.270279,286.034363 117.032219,285.058380 
	C117.032219,282.471222 117.032219,279.884033 117.032219,276.879822 
	C129.313690,276.879822 141.114426,276.879822 153.500870,276.879822 
	C152.962677,273.288513 152.501190,270.209015 151.103546,267.015228 
	C136.746445,266.993347 122.389336,266.971466 107.693047,266.188965 
	C107.125305,267.193817 106.073341,268.194031 106.063644,269.204224 
	C105.948944,281.158112 105.967064,293.113647 106.032158,305.068268 
	C106.037552,306.058472 106.638069,307.045471 106.949791,308.677856 
	C106.954124,309.107147 106.958458,309.536469 106.188103,310.307404 
	C106.123116,311.760132 106.058136,313.212860 105.980469,314.949249 
	C121.501595,314.949249 136.740967,314.954285 151.980194,314.910858 
	C152.267181,314.910034 152.552521,314.334961 152.979736,313.111420 
M306.595306,343.139679 
	C309.163025,345.880554 312.060059,345.563965 315.730774,344.048248 
	C316.156433,344.099152 316.582092,344.150055 317.459778,344.890656 
	C326.261932,344.961121 327.424500,343.859558 325.971771,336.620392 
	C325.796539,335.747284 325.173462,334.427582 324.567719,334.311981 
	C323.796417,334.164825 322.856293,335.099152 321.943970,335.450348 
	C320.358917,336.060486 318.739410,336.581024 316.546753,337.002869 
	C316.070984,337.329254 315.595215,337.655609 314.666321,337.286835 
	C311.735687,337.583374 308.805023,337.879913 305.219910,337.783661 
	C304.945221,336.507477 304.670532,335.231293 304.275055,333.393982 
	C303.030487,335.050323 302.270172,336.062195 300.648529,337.018951 
	C296.931244,337.018951 293.213989,337.018951 290.366882,337.018951 
	C289.744537,339.431610 289.269867,341.271851 288.795197,343.112061 
	C288.301025,343.019501 287.806854,342.926910 287.312683,342.834320 
	C287.089813,340.970825 286.866943,339.107330 286.627625,337.106567 
	C284.743347,337.106567 283.119965,337.106567 281.683685,337.106567 
	C282.416534,338.345734 283.847198,339.644501 283.801239,340.888702 
	C283.636627,345.343323 286.492157,345.154999 289.391602,344.938446 
	C290.914001,344.824707 292.400665,344.137299 293.918304,344.075897 
	C296.604462,343.967194 299.301971,344.138702 302.595337,344.160583 
	C303.690338,343.715088 304.785339,343.269592 306.595306,343.139679 
M382.339081,336.815765 
	C379.557281,336.836945 376.775452,336.858093 373.294556,337.183838 
	C369.882202,337.108734 366.469818,337.033600 362.935455,336.115540 
	C359.759583,335.645477 356.583710,335.175385 353.411621,334.705872 
	C353.411621,338.749512 353.411621,341.791321 353.411621,345.372253 
	C356.915161,344.905121 360.076904,343.810059 362.997772,344.264130 
	C366.672119,344.835327 365.933075,342.939117 365.974121,340.178223 
	C368.573303,338.946320 368.514038,338.960999 369.050934,341.129395 
	C369.391327,342.504089 369.940155,343.827179 370.286987,344.852600 
	C371.926331,344.062103 372.942932,343.571869 374.211914,343.635376 
	C374.794342,343.774719 375.376801,343.914062 375.834961,344.689850 
	C376.775208,347.770233 378.124420,347.860901 381.621124,344.947174 
	C382.039734,344.627228 382.458313,344.307281 383.333588,344.688019 
	C386.454498,344.714478 390.141479,346.691437 392.227539,342.763306 
	C393.047455,343.418274 394.105957,343.920471 394.641846,344.757324 
	C396.150482,347.113281 396.065735,347.167542 399.849762,345.996979 
	C400.522552,344.997559 401.195343,343.998169 402.248444,343.688751 
	C405.503326,343.745361 408.758209,343.802002 412.743500,343.578552 
	C412.917725,342.156616 413.091949,340.734650 413.266174,339.312714 
	C413.700378,339.057281 414.134583,338.801849 414.568756,338.546417 
	C415.752716,340.027740 416.936676,341.509094 417.731110,342.503113 
	C418.041229,341.509857 418.620392,339.654816 419.506409,336.816895 
	C416.758606,337.214935 414.358765,337.562561 411.138580,337.972595 
	C408.047516,337.982239 404.956451,337.991882 401.154022,337.627411 
	C398.739624,335.407227 394.642761,335.338806 391.898590,337.541016 
	C391.898590,337.541016 391.892700,337.738129 391.106171,337.875244 
	C388.440735,337.633636 385.775299,337.392059 382.339081,336.815765 
M471.748383,314.415222 
	C471.962708,297.419250 472.179047,280.423340 472.334595,263.426819 
	C472.335358,263.341492 471.475525,263.248291 470.241150,262.997742 
	C467.607117,263.742126 464.973053,264.486481 463.042664,265.032013 
	C463.042664,281.858215 463.042664,298.200043 463.042664,314.833496 
	C466.112579,314.833496 468.570099,314.833496 471.748383,314.415222 
M454.814148,314.507843 
	C454.880646,298.042938 454.958557,281.578064 454.972046,265.113129 
	C454.972595,264.455444 454.361572,263.797241 453.265656,263.015747 
	C450.875122,263.705109 448.484589,264.394470 445.247742,265.357513 
	C445.169250,281.374908 445.082581,297.392273 445.051483,313.409760 
	C445.050537,313.892822 445.630096,314.376953 446.834503,314.955780 
	C449.233765,314.923157 451.633026,314.890533 454.814148,314.507843 
M169.746078,287.726746 
	C172.975922,284.147491 177.272705,284.978119 181.323288,285.022278 
	C188.096252,285.096100 189.983612,287.098022 190.000610,293.960541 
	C190.017685,300.853088 190.004364,307.745697 190.004364,315.383881 
	C193.473618,314.854736 196.162186,314.444641 199.290863,314.682037 
	C199.531738,306.390320 199.807632,298.099243 199.966263,289.805939 
	C199.984726,288.840729 199.354202,287.863068 199.021500,286.157654 
	C197.714890,283.966644 196.856689,281.244263 195.013611,279.688934 
	C190.364960,275.766052 174.546158,275.835052 169.506195,277.887360 
	C166.339111,277.635803 163.172012,277.384216 159.259003,277.050293 
	C159.079666,289.402222 158.893295,301.754120 158.772415,314.106598 
	C158.770035,314.349030 159.536148,314.598969 160.835571,314.951660 
	C163.228210,314.924500 165.620850,314.897369 168.813614,314.544586 
	C168.902832,305.702423 168.992050,296.860291 169.746078,287.726746 
M389.076660,313.136749 
	C389.345551,310.782166 389.614441,308.427582 389.664062,305.207642 
	C380.204285,305.205261 370.744537,305.202850 360.668701,304.823975 
	C360.480438,302.921631 360.292175,301.019257 361.026031,299.039124 
	C369.466614,299.031342 377.907806,299.071808 386.347260,298.971008 
	C387.850006,298.953064 389.345764,298.349335 390.952057,297.099152 
	C390.966400,295.432831 390.992432,293.766541 390.993164,292.100220 
	C390.997742,281.736145 386.304565,277.010193 375.957214,276.973236 
	C370.791199,276.954803 365.622681,276.861359 360.459717,276.985260 
	C354.223114,277.134888 350.016968,281.522461 350.002869,287.675873 
	C349.991058,292.842010 349.994965,298.008179 350.003632,303.174347 
	C350.015686,310.381714 353.743561,314.067505 361.358612,314.845276 
	C369.779999,314.893280 378.201477,314.969177 386.622620,314.941864 
	C387.382690,314.939392 388.140594,314.271423 389.076660,313.136749 
M281.605194,285.990326 
	C284.885193,287.232452 285.628448,289.500305 284.482330,292.627014 
	C282.677643,292.405518 281.068970,292.023041 279.465485,292.043640 
	C272.913544,292.127869 266.358856,292.240845 259.814148,292.539612 
	C256.807190,292.676849 254.336609,294.279480 254.210007,297.446564 
	C254.047104,301.522278 254.311142,305.663269 254.922546,309.695557 
	C255.135605,311.100800 256.735352,313.112610 258.029724,313.407379 
	C268.058563,315.691010 278.110687,316.722626 287.570282,311.849762 
	C289.527252,312.943085 291.434967,314.008911 294.031616,315.459625 
	C294.031616,305.829590 294.024506,297.199677 294.034027,288.569763 
	C294.040588,282.625031 292.317780,279.095856 286.379974,278.192688 
	C278.287964,276.961823 269.950745,277.401276 261.729187,276.937836 
	C257.940643,276.724304 256.516296,278.314545 256.206604,282.284760 
	C256.150818,283.418549 256.095032,284.552338 256.031372,285.846039 
	C264.425690,285.846039 272.639130,285.846039 281.605194,285.990326 
M437.340057,314.647369 
	C437.518097,305.109985 437.696136,295.572601 437.720306,285.348633 
	C436.097900,281.388733 434.129578,278.000580 429.054169,277.838837 
	C419.843903,277.545319 410.641052,277.018066 401.722778,276.601807 
	C400.890350,280.077728 400.274506,282.649292 399.611359,285.418304 
	C400.241394,285.615509 400.840576,285.966492 401.439117,285.965424 
	C408.433075,285.952972 415.434113,286.057312 422.417725,285.762390 
	C425.765045,285.621033 427.385284,287.231750 427.718109,290.047668 
	C427.773468,290.515900 424.698608,291.854340 423.027557,291.938080 
	C416.488647,292.265686 409.932037,292.228973 403.383636,292.393127 
	C402.586548,292.413086 401.293579,292.614594 401.088654,293.096771 
	C399.605164,296.586914 397.589996,300.095764 397.225525,303.746674 
	C396.874329,307.264771 397.018097,311.934265 401.637238,313.209839 
	C411.835022,316.026062 422.036682,317.018982 430.226868,311.718201 
	C433.055359,312.710327 434.961700,313.378998 437.340057,314.647369 
M341.994720,310.029755 
	C341.979614,300.916962 342.011932,291.803680 341.909882,282.691864 
	C341.889191,280.842438 341.361511,278.998688 340.199951,277.024872 
	C337.543091,277.721161 334.893585,278.448059 332.222992,279.086823 
	C331.713043,279.208801 331.120941,278.972168 330.564972,278.919250 
	C323.917877,278.286682 317.275452,277.248505 310.621399,277.167023 
	C305.935089,277.109650 302.328888,279.809845 302.041138,284.954529 
	C301.732819,290.467621 301.885071,296.011993 301.976410,301.540375 
	C302.057037,306.421204 305.693573,309.130463 309.530273,309.510315 
	C317.111664,310.260773 324.962280,311.334442 332.295959,307.324707 
	C331.841736,311.349365 332.250061,315.618530 326.776123,315.983551 
	C322.947388,316.238861 319.116425,316.461487 315.249298,316.700989 
	C314.521179,324.515747 314.520386,324.529510 322.226715,324.971802 
	C323.720184,325.057495 325.225739,325.054749 326.720245,324.981628 
	C337.283661,324.464844 341.042725,320.849243 341.994720,310.029755 
M247.021790,311.056610 
	C247.011093,301.240570 247.040985,291.424103 246.946487,281.608887 
	C246.932114,280.115143 246.341141,278.626984 245.142960,277.022797 
	C241.774216,277.454071 238.396484,278.299652 235.038651,278.226929 
	C228.818176,278.092133 222.585037,276.875305 216.403610,277.150787 
	C211.758224,277.357819 207.063065,278.912415 206.724838,285.199890 
	C206.469391,289.948486 205.394852,294.687378 205.500687,299.412292 
	C205.628601,305.122803 210.426453,308.965881 216.524490,309.555695 
	C223.690247,310.248779 230.775497,310.687012 237.570709,307.059143 
	C236.808548,316.273468 233.481415,316.921082 219.871643,316.512604 
	C219.832306,324.608459 220.031418,324.836517 227.538773,324.984467 
	C229.367233,325.020508 231.217590,325.164459 233.022629,324.955017 
	C240.369888,324.102539 246.630264,320.631897 247.021790,311.056610 
M299.922668,89.458527 
	C288.895386,88.214325 277.871368,88.121986 267.062317,90.859749 
	C249.516525,95.303833 235.613083,105.138077 224.733597,119.629745 
	C209.573608,139.823120 205.668076,162.150848 210.915359,186.501434 
	C212.580765,194.229965 217.643051,201.513412 214.207611,209.970352 
	C214.182220,210.032867 214.373306,210.183319 214.971085,210.909790 
	C218.744934,205.166092 222.451401,199.636307 225.981049,193.995880 
	C226.372559,193.370270 225.848785,192.087692 225.591415,191.153336 
	C223.134094,182.232910 221.339828,173.428787 222.835510,163.919174 
	C225.128937,149.337570 231.262268,136.696716 241.893188,126.992821 
	C250.694717,118.958778 261.225708,113.132751 273.678070,111.605621 
	C296.190460,108.844757 314.822571,115.602074 329.422760,133.115295 
	C331.367798,135.448395 333.469879,137.650558 334.500397,138.799576 
	C340.289948,133.383743 345.885529,128.149353 352.421234,122.035522 
	C347.729767,117.299149 342.816437,111.926064 337.468475,107.027512 
	C327.050507,97.485023 314.392242,92.496994 299.922668,89.458527 
M306.968231,227.509018 
	C296.291534,228.950760 294.875397,237.734512 292.833862,246.061493 
	C310.404266,245.499161 325.935608,238.931198 339.200073,227.267181 
	C353.215698,214.942627 362.433319,199.685822 365.147644,180.909775 
	C366.992462,168.148758 366.722168,155.476028 362.464081,143.226059 
	C361.431885,140.256622 361.350464,138.166870 362.732117,135.434891 
	C363.900421,133.124741 364.181213,130.365723 364.854797,127.805367 
	C358.270081,134.365692 352.644043,141.043228 347.736877,148.212784 
	C345.439240,151.569748 342.740784,156.153000 343.290100,159.706528 
	C346.164337,178.300201 342.407684,194.831757 330.795319,209.681396 
	C324.597412,217.607101 316.369843,222.653488 306.968231,227.509018 
z"/>
<path fill="#2B3D91" opacity="1.000000" stroke="none" 
	d="
M300.310089,89.649994 
	C314.392242,92.496994 327.050507,97.485023 337.468475,107.027512 
	C342.816437,111.926064 347.729767,117.299149 352.421234,122.035522 
	C345.885529,128.149353 340.289948,133.383743 334.500397,138.799576 
	C333.469879,137.650558 331.367798,135.448395 329.422760,133.115295 
	C314.822571,115.602074 296.190460,108.844757 273.678070,111.605621 
	C261.225708,113.132751 250.694717,118.958778 241.893188,126.992821 
	C231.262268,136.696716 225.128937,149.337570 222.835510,163.919174 
	C221.339828,173.428787 223.134094,182.232910 225.591415,191.153336 
	C225.848785,192.087692 226.372559,193.370270 225.981049,193.995880 
	C222.451401,199.636307 218.744934,205.166092 214.971085,210.909790 
	C214.373306,210.183319 214.182220,210.032867 214.207611,209.970352 
	C217.643051,201.513412 212.580765,194.229965 210.915359,186.501434 
	C205.668076,162.150848 209.573608,139.823120 224.733597,119.629745 
	C235.613083,105.138077 249.516525,95.303833 267.062317,90.859749 
	C277.871368,88.121986 288.895386,88.214325 300.310089,89.649994 
z"/>
<path fill="#2C3E92" opacity="1.000000" stroke="none" 
	d="
M268.120300,210.186005 
	C269.473358,211.103546 270.826416,212.021088 272.791199,213.073456 
	C274.417542,213.801254 275.432190,214.394241 276.703918,215.250366 
	C277.704285,215.348099 278.447571,215.182709 279.496368,214.867004 
	C284.865997,206.854568 289.930084,198.992447 295.284729,191.037231 
	C295.814087,190.638367 296.052887,190.332596 296.291687,190.026825 
	C298.407745,187.613144 300.523773,185.199463 302.872803,182.133850 
	C308.806488,174.274689 314.507202,167.067429 320.207886,159.860184 
	C321.670593,158.880981 323.356110,158.117691 324.553772,156.881668 
	C328.009033,153.315750 331.192780,149.487976 334.617981,145.891434 
	C343.679657,136.376450 352.784332,126.901848 361.954163,117.491318 
	C363.036865,116.380150 364.631805,115.768097 366.953522,114.325577 
	C366.629639,116.331451 366.798126,117.549339 366.271210,118.224815 
	C346.304932,143.820755 327.833557,170.481216 311.528748,198.518799 
	C303.656708,212.055389 297.600220,226.667725 291.053711,240.945221 
	C288.487061,246.542892 285.294647,248.011292 280.096741,244.647308 
	C264.330017,234.443375 247.216736,227.416214 229.001205,223.037643 
	C225.944778,222.302948 222.733398,222.236298 219.625992,221.680145 
	C218.117966,221.410248 215.678085,221.009903 215.435440,220.161102 
	C214.984482,218.583588 215.342545,216.330414 216.229767,214.893097 
	C219.721329,209.236679 223.662598,203.858994 227.195343,198.226288 
	C228.534363,196.091324 229.527496,195.941132 231.938400,196.754135 
	C237.174118,198.519760 242.651459,199.568909 248.654053,201.202744 
	C255.558807,204.391693 261.839569,207.288849 268.120300,210.186005 
z"/>
<path fill="#2B3D91" opacity="1.000000" stroke="none" 
	d="
M307.295898,227.302490 
	C316.369843,222.653488 324.597412,217.607101 330.795319,209.681396 
	C342.407684,194.831757 346.164337,178.300201 343.290100,159.706528 
	C342.740784,156.153000 345.439240,151.569748 347.736877,148.212784 
	C352.644043,141.043228 358.270081,134.365692 364.854797,127.805367 
	C364.181213,130.365723 363.900421,133.124741 362.732117,135.434891 
	C361.350464,138.166870 361.431885,140.256622 362.464081,143.226059 
	C366.722168,155.476028 366.992462,168.148758 365.147644,180.909775 
	C362.433319,199.685822 353.215698,214.942627 339.200073,227.267181 
	C325.935608,238.931198 310.404266,245.499161 292.833862,246.061493 
	C294.875397,237.734512 296.291534,228.950760 307.295898,227.302490 
z"/>
<path fill="#293B90" opacity="1.000000" stroke="none" 
	d="
M106.962799,309.965759 
	C106.958458,309.536469 106.954124,309.107147 107.007401,307.887146 
	C107.070534,295.227386 107.042259,283.358093 107.123520,271.489594 
	C107.133888,269.974274 107.715347,268.462860 108.032242,266.949615 
	C122.389336,266.971466 136.746445,266.993347 151.554352,267.519684 
	C152.005157,270.608856 152.005157,273.193573 152.005157,276.174438 
	C139.667587,276.174438 128.070251,276.174438 116.156853,276.174438 
	C116.156853,279.708313 116.156853,282.825836 116.368912,286.305023 
	C128.055313,286.755096 139.529663,286.843506 151.004013,286.931885 
	C151.323517,289.014771 151.643021,291.097687 151.461823,293.571960 
	C140.846817,293.956970 130.732117,293.905243 120.618645,293.993744 
	C119.122780,294.006805 117.632721,294.682831 116.068848,295.501526 
	C115.997726,298.849487 115.997726,301.748047 115.997726,305.107056 
	C128.380371,305.107056 140.031723,305.107056 151.888138,305.107056 
	C151.888138,308.373810 151.888138,311.153015 151.428070,313.970032 
	C136.392899,314.007874 121.817787,314.007874 107.255554,314.007874 
	C107.130547,312.281860 107.046669,311.123810 106.962799,309.965759 
z"/>
<path fill="#1FA2B8" opacity="1.000000" stroke="none" 
	d="
M276.446808,214.987228 
	C275.432190,214.394241 274.417542,213.801254 273.143982,213.046906 
	C272.885071,212.885529 272.941132,212.477005 272.988403,211.800293 
	C273.081970,191.100266 273.128326,171.076935 273.631470,151.039154 
	C281.071259,150.990799 288.054260,150.956879 295.037231,150.922974 
	C295.037231,150.922974 295.024414,150.996872 294.909882,151.422989 
	C294.861633,164.942856 294.927917,178.036591 294.994202,191.130341 
	C289.930084,198.992447 284.865997,206.854568 279.033447,214.773651 
	C277.658905,214.882812 277.052856,214.935028 276.446808,214.987228 
z"/>
<path fill="#2C3E91" opacity="1.000000" stroke="none" 
	d="
M246.892090,311.988037 
	C246.630264,320.631897 240.369888,324.102539 233.022629,324.955017 
	C231.217590,325.164459 229.367233,325.020508 227.538773,324.984467 
	C220.031418,324.836517 219.832306,324.608459 219.871643,316.512604 
	C233.481415,316.921082 236.808548,316.273468 237.570709,307.059143 
	C230.775497,310.687012 223.690247,310.248779 216.524490,309.555695 
	C210.426453,308.965881 205.628601,305.122803 205.500687,299.412292 
	C205.394852,294.687378 206.469391,289.948486 206.724838,285.199890 
	C207.063065,278.912415 211.758224,277.357819 216.403610,277.150787 
	C222.585037,276.875305 228.818176,278.092133 235.038651,278.226929 
	C238.396484,278.299652 241.774216,277.454071 245.577728,277.538422 
	C246.017548,287.151306 245.967834,296.249207 246.066940,305.345428 
	C246.091095,307.562347 246.603943,309.773987 246.892090,311.988037 
M223.584839,301.969543 
	C225.571014,301.966339 227.602249,302.225647 229.532120,301.894379 
	C232.025360,301.466461 235.865570,301.239075 236.578369,299.725586 
	C237.934402,296.846313 238.329773,292.872772 237.457306,289.831818 
	C236.951752,288.069702 233.303268,286.935455 230.869934,286.096313 
	C229.242737,285.535156 227.265335,285.989258 225.444656,285.989349 
	C215.839905,285.989838 215.970779,286.026917 215.920074,295.737000 
	C215.894455,300.643951 217.702240,302.809998 223.584839,301.969543 
z"/>
<path fill="#2B3D91" opacity="1.000000" stroke="none" 
	d="
M341.877380,310.957550 
	C341.042725,320.849243 337.283661,324.464844 326.720245,324.981628 
	C325.225739,325.054749 323.720184,325.057495 322.226715,324.971802 
	C314.520386,324.529510 314.521179,324.515747 315.249298,316.700989 
	C319.116425,316.461487 322.947388,316.238861 326.776123,315.983551 
	C332.250061,315.618530 331.841736,311.349365 332.295959,307.324707 
	C324.962280,311.334442 317.111664,310.260773 309.530273,309.510315 
	C305.693573,309.130463 302.057037,306.421204 301.976410,301.540375 
	C301.885071,296.011993 301.732819,290.467621 302.041138,284.954529 
	C302.328888,279.809845 305.935089,277.109650 310.621399,277.167023 
	C317.275452,277.248505 323.917877,278.286682 330.564972,278.919250 
	C331.120941,278.972168 331.713043,279.208801 332.222992,279.086823 
	C334.893585,278.448059 337.543091,277.721161 340.632843,277.546722 
	C341.070587,285.822632 341.000275,293.577789 341.116455,301.330170 
	C341.164581,304.542389 341.611694,307.748596 341.877380,310.957550 
M332.984741,297.098785 
	C332.992493,295.934601 333.013794,294.770325 333.005676,293.606262 
	C332.965393,287.828644 331.131500,286.024078 325.251740,285.994232 
	C322.257996,285.979065 319.264008,286.012482 316.270386,285.989349 
	C312.859467,285.963013 311.149048,287.484741 310.960022,291.034454 
	C310.376923,301.985718 310.314972,302.045654 321.257355,301.926025 
	C324.035858,301.895660 326.879059,301.590393 329.553131,300.883881 
	C330.837952,300.544403 331.798157,298.976501 332.984741,297.098785 
z"/>
<path fill="#2B3D91" opacity="1.000000" stroke="none" 
	d="
M436.868042,314.047668 
	C434.961700,313.378998 433.055359,312.710327 430.226868,311.718201 
	C422.036682,317.018982 411.835022,316.026062 401.637238,313.209839 
	C397.018097,311.934265 396.874329,307.264771 397.225525,303.746674 
	C397.589996,300.095764 399.605164,296.586914 401.088654,293.096771 
	C401.293579,292.614594 402.586548,292.413086 403.383636,292.393127 
	C409.932037,292.228973 416.488647,292.265686 423.027557,291.938080 
	C424.698608,291.854340 427.773468,290.515900 427.718109,290.047668 
	C427.385284,287.231750 425.765045,285.621033 422.417725,285.762390 
	C415.434113,286.057312 408.433075,285.952972 401.439117,285.965424 
	C400.840576,285.966492 400.241394,285.615509 399.611359,285.418304 
	C400.274506,282.649292 400.890350,280.077728 401.722778,276.601807 
	C410.641052,277.018066 419.843903,277.545319 429.054169,277.838837 
	C434.129578,278.000580 436.097900,281.388733 437.461884,285.948334 
	C437.091675,295.714569 436.979858,304.881134 436.868042,314.047668 
M416.470520,299.048248 
	C414.651215,299.048279 412.827850,299.125305 411.013580,299.029938 
	C408.407288,298.892975 406.448059,299.855469 407.173157,302.608185 
	C407.531250,303.967712 409.548187,305.816101 410.841370,305.837769 
	C415.575775,305.917023 420.364746,305.580597 425.032440,304.799164 
	C426.204010,304.603058 427.000031,302.163483 427.968658,300.755005 
	C426.759979,300.122772 425.595764,299.085541 424.332886,298.946930 
	C422.056213,298.696991 419.720520,298.984985 416.470520,299.048248 
z"/>
<path fill="#2C3E91" opacity="1.000000" stroke="none" 
	d="
M256.975555,281.925781 
	C256.516296,278.314545 257.940643,276.724304 261.729187,276.937836 
	C269.950745,277.401276 278.287964,276.961823 286.379974,278.192688 
	C292.317780,279.095856 294.040588,282.625031 294.034027,288.569763 
	C294.024506,297.199677 294.031616,305.829590 294.031616,315.459625 
	C291.434967,314.008911 289.527252,312.943085 287.570282,311.849762 
	C278.110687,316.722626 268.058563,315.691010 258.029724,313.407379 
	C256.735352,313.112610 255.135605,311.100800 254.922546,309.695557 
	C254.311142,305.663269 254.047104,301.522278 254.210007,297.446564 
	C254.336609,294.279480 256.807190,292.676849 259.814148,292.539612 
	C266.358856,292.240845 272.913544,292.127869 279.465485,292.043640 
	C281.068970,292.023041 282.677643,292.405518 284.482330,292.627014 
	C285.628448,289.500305 284.885193,287.232452 280.962921,285.602417 
	C273.680878,285.155212 267.040222,285.010773 260.401855,285.082153 
	C258.034027,285.107605 256.518860,284.723236 256.975555,281.925781 
M274.996124,299.030518 
	C271.415924,299.030518 267.835754,299.030518 264.486572,299.030518 
	C263.142700,304.381134 264.761810,306.530579 269.584991,306.023163 
	C273.354584,305.626587 277.131439,305.135406 280.912781,305.056763 
	C285.142303,304.968750 285.422241,302.749023 284.476105,298.969208 
	C281.596680,298.969208 278.737152,298.969208 274.996124,299.030518 
z"/>
<path fill="#293B90" opacity="1.000000" stroke="none" 
	d="
M360.103943,299.116913 
	C360.292175,301.019257 360.480438,302.921631 361.295837,305.246582 
	C371.243073,305.803802 380.563202,305.938416 389.883331,306.072998 
	C389.614441,308.427582 389.345551,310.782166 388.527832,313.532928 
	C378.982269,313.969635 369.985535,314.010193 360.988770,314.050720 
	C353.743561,314.067505 350.015686,310.381714 350.003632,303.174347 
	C349.994965,298.008179 349.991058,292.842010 350.002869,287.675873 
	C350.016968,281.522461 354.223114,277.134888 360.459717,276.985260 
	C365.622681,276.861359 370.791199,276.954803 375.957214,276.973236 
	C386.304565,277.010193 390.997742,281.736145 390.993164,292.100220 
	C390.992432,293.766541 390.966400,295.432831 390.441284,297.550201 
	C381.143738,297.997986 372.356537,297.953339 363.570648,298.041382 
	C362.411621,298.053009 361.259338,298.741760 360.103943,299.116913 
M377.223206,285.958984 
	C366.891174,282.615570 359.004395,285.541473 359.556244,293.003510 
	C364.940887,293.003510 370.378998,293.177826 375.794159,292.901794 
	C377.513611,292.814178 379.171936,291.526886 380.858215,290.788605 
	C379.918640,289.226135 378.979095,287.663666 377.223206,285.958984 
z"/>
<path fill="#21A2B9" opacity="1.000000" stroke="none" 
	d="
M320.138092,159.682800 
	C314.507202,167.067429 308.806488,174.274689 302.989655,181.822800 
	C302.125031,182.392273 301.376587,182.620880 300.016907,182.681122 
	C299.283051,166.062515 299.160431,149.612289 299.037842,133.162064 
	C305.693268,133.112991 312.348755,133.063904 319.470337,133.545197 
	C319.961700,142.426483 319.986908,150.777420 320.012085,159.128357 
	C320.012085,159.128357 320.068298,159.505417 320.138092,159.682800 
z"/>
<path fill="#293B90" opacity="1.000000" stroke="none" 
	d="
M160.004929,277.132660 
	C163.172012,277.384216 166.339111,277.635803 169.506195,277.887360 
	C174.546158,275.835052 190.364960,275.766052 195.013611,279.688934 
	C196.856689,281.244263 197.714890,283.966644 198.976959,286.998322 
	C198.905182,296.570831 198.877960,305.302704 198.850754,314.034546 
	C196.162186,314.444641 193.473618,314.854736 190.004364,315.383881 
	C190.004364,307.745697 190.017685,300.853088 190.000610,293.960541 
	C189.983612,287.098022 188.096252,285.096100 181.323288,285.022278 
	C177.272705,284.978119 172.975922,284.147491 169.075989,288.128662 
	C168.275101,297.310455 168.144287,306.090332 168.013489,314.870239 
	C165.620850,314.897369 163.228210,314.924500 160.404846,314.440918 
	C159.984390,301.664307 159.994659,289.398499 160.004929,277.132660 
z"/>
<path fill="#1FA2B8" opacity="1.000000" stroke="none" 
	d="
M268.305420,210.115326 
	C261.839569,207.288849 255.558807,204.391693 249.062241,201.197357 
	C248.977066,200.629578 248.926102,200.399139 248.467560,199.600266 
	C248.213043,188.655533 248.184479,178.319382 248.155914,167.983246 
	C254.479385,167.788422 260.802856,167.593613 267.698425,167.644379 
	C268.505554,168.994080 268.944122,170.098099 268.944550,171.202271 
	C268.949646,184.090912 268.888794,196.979553 268.845337,209.868210 
	C268.845337,209.868210 268.490509,210.044662 268.305420,210.115326 
z"/>
<path fill="#293B90" opacity="1.000000" stroke="none" 
	d="
M446.094055,265.083832 
	C448.484589,264.394470 450.875122,263.705109 453.631378,263.535889 
	C454.008820,280.990021 454.020538,297.923950 454.032288,314.857910 
	C451.633026,314.890533 449.233765,314.923157 446.407104,314.449890 
	C446.017822,297.657257 446.055939,281.370544 446.094055,265.083832 
z"/>
<path fill="#293B90" opacity="1.000000" stroke="none" 
	d="
M471.027618,314.833496 
	C468.570099,314.833496 466.112579,314.833496 463.042664,314.833496 
	C463.042664,298.200043 463.042664,281.858215 463.042664,265.032013 
	C464.973053,264.486481 467.607117,263.742126 470.624298,263.535339 
	C471.014160,280.993103 471.020874,297.913300 471.027618,314.833496 
z"/>
<path fill="#3BACBF" opacity="1.000000" stroke="none" 
	d="
M237.893738,337.854340 
	C242.124374,337.581665 246.351913,337.157867 250.586349,337.071350 
	C257.144958,336.937317 263.708344,337.052094 270.269470,337.015564 
	C271.527008,337.008575 272.783325,336.790192 274.476257,336.627411 
	C274.310089,337.516083 274.045441,338.221039 274.069031,338.916168 
	C274.286835,345.329681 274.190613,345.196228 267.683563,345.018219 
	C258.733398,344.773438 249.771927,344.943451 240.331619,344.505951 
	C239.196533,342.002228 238.545135,339.928284 237.893738,337.854340 
z"/>
<path fill="#53B6C6" opacity="1.000000" stroke="none" 
	d="
M346.030029,337.214691 
	C346.545166,338.127625 347.567352,339.106720 347.458832,339.938263 
	C347.287811,341.248566 346.356628,342.459717 345.064453,343.869110 
	C342.910828,344.957153 341.440002,345.888916 339.969147,346.820679 
	C337.701447,346.193542 335.434845,345.056061 333.165771,345.050995 
	C329.092621,345.041840 328.151825,343.468719 329.448639,339.868744 
	C329.767609,338.983215 329.753235,337.977600 329.892548,337.027252 
	C330.029816,336.090759 330.167633,335.154358 330.305176,334.217896 
	C331.193237,334.779724 332.017731,335.534943 332.985870,335.853180 
	C334.132172,336.229950 335.402374,336.229828 336.943665,336.887695 
	C337.843048,337.317535 338.417694,337.252808 338.992310,337.188049 
	C340.596161,338.007843 342.199982,338.827667 344.169922,339.180481 
	C344.763367,338.492981 344.904724,338.226807 344.960052,337.914978 
	C344.960052,337.914978 344.983978,337.984344 345.168488,337.903809 
	C345.632599,337.680420 345.858276,337.477570 346.030029,337.214691 
M339.899963,339.759644 
	C339.899963,339.759644 339.577850,339.757446 339.577850,339.757446 
	C339.577850,339.757446 339.984467,340.012268 339.978241,340.645325 
	C340.338440,341.264435 340.698639,341.883514 341.058838,342.502625 
	C341.311218,342.306702 341.563599,342.110809 341.815979,341.914886 
	C341.214020,341.272095 340.612091,340.629333 339.899963,339.759644 
z"/>
<path fill="#3BACBF" opacity="1.000000" stroke="none" 
	d="
M301.994720,344.192963 
	C299.301971,344.138702 296.604462,343.967194 293.918304,344.075897 
	C292.400665,344.137299 290.914001,344.824707 289.391602,344.938446 
	C286.492157,345.154999 283.636627,345.343323 283.801239,340.888702 
	C283.847198,339.644501 282.416534,338.345734 281.683685,337.106567 
	C283.119965,337.106567 284.743347,337.106567 286.627625,337.106567 
	C286.866943,339.107330 287.089813,340.970825 287.312683,342.834320 
	C287.806854,342.926910 288.301025,343.019501 288.795197,343.112061 
	C289.269867,341.271851 289.744537,339.431610 290.366882,337.018951 
	C293.213989,337.018951 296.931244,337.018951 301.133789,337.443939 
	C303.124115,343.218414 297.030212,339.294922 296.373840,341.953522 
	C298.327118,342.731750 300.160919,343.462341 301.994720,344.192963 
z"/>
<path fill="#3BACBF" opacity="1.000000" stroke="none" 
	d="
M363.057465,336.958496 
	C366.469818,337.033600 369.882202,337.108734 374.092834,337.039978 
	C376.887421,336.896118 378.883728,336.896118 381.084778,336.896118 
	C381.084778,340.229340 381.084778,342.635986 381.084778,345.042633 
	C378.124420,347.860901 376.775208,347.770233 376.235016,344.290710 
	C377.035156,342.837738 377.435242,341.783936 377.835297,340.730133 
	C377.373688,340.491058 376.912048,340.252014 376.450439,340.012970 
	C375.620117,341.035889 374.789825,342.058777 373.959534,343.081665 
	C372.942932,343.571869 371.926331,344.062103 370.286987,344.852600 
	C369.940155,343.827179 369.391327,342.504089 369.050934,341.129395 
	C368.514038,338.960999 368.573303,338.946320 365.536682,340.573181 
	C364.398682,340.977905 363.698059,340.987671 362.998718,340.998718 
	C363.000000,341.000000 363.002563,341.003662 363.010834,340.598633 
	C363.031891,339.115234 363.044678,338.036865 363.057465,336.958496 
z"/>
<path fill="#2CA6BB" opacity="1.000000" stroke="none" 
	d="
M182.925873,340.463043 
	C182.925888,340.463043 183.041550,340.604523 182.730377,340.903381 
	C182.323608,342.077179 182.228012,342.952148 182.132416,343.827087 
	C181.578964,342.460876 181.025528,341.094666 180.245209,339.168427 
	C179.516907,339.287018 177.417786,339.252838 177.307755,339.703888 
	C175.964020,345.212616 171.650345,344.841156 167.020721,344.703064 
	C166.252548,344.355743 166.060593,344.184265 165.931519,343.942322 
	C165.931519,343.942322 166.017181,343.988892 166.085815,343.602478 
	C166.199265,341.188904 166.244095,339.161743 166.288925,337.134583 
	C171.582428,337.079224 176.875946,337.023865 182.588837,337.190094 
	C183.008224,337.411682 182.945404,337.708954 182.882492,338.174927 
	C182.855011,339.248291 182.890442,339.855682 182.925873,340.463043 
z"/>
<path fill="#53B6C6" opacity="1.000000" stroke="none" 
	d="
M317.134338,337.139130 
	C318.739410,336.581024 320.358917,336.060486 321.943970,335.450348 
	C322.856293,335.099152 323.796417,334.164825 324.567719,334.311981 
	C325.173462,334.427582 325.796539,335.747284 325.971771,336.620392 
	C327.424500,343.859558 326.261932,344.961121 317.265442,344.100006 
	C317.092163,341.252625 317.113251,339.195862 317.134338,337.139130 
z"/>
<path fill="#3BACBF" opacity="1.000000" stroke="none" 
	d="
M218.046341,344.092712 
	C214.543381,345.304443 211.109055,345.979706 206.879501,342.435669 
	C210.165009,342.100677 212.251740,341.887909 214.702881,341.638000 
	C211.786758,340.227753 206.797607,342.154144 207.153839,337.433319 
	C207.503708,332.796844 211.977127,335.955078 214.425858,335.021362 
	C215.021927,334.794067 215.623138,334.580322 216.750519,334.572662 
	C216.930374,335.402527 216.664001,336.475739 216.218292,336.556244 
	C214.561234,336.855591 212.845200,336.828491 211.151306,336.923950 
	C213.621796,339.616608 220.046967,337.417450 218.046341,344.092712 
z"/>
<path fill="#2CA6BB" opacity="1.000000" stroke="none" 
	d="
M362.997467,340.997437 
	C363.698059,340.987671 364.398682,340.977905 365.449554,340.962769 
	C365.933075,342.939117 366.672119,344.835327 362.997772,344.264130 
	C360.076904,343.810059 356.915161,344.905121 353.411621,345.372253 
	C353.411621,341.791321 353.411621,338.749512 353.411621,334.705872 
	C356.583710,335.175385 359.759583,335.645477 362.996460,336.537018 
	C363.044678,338.036865 363.031891,339.115234 362.660339,340.516235 
	C360.749390,339.942261 359.249207,338.552704 357.620667,338.381073 
	C356.926941,338.307922 355.964844,340.781097 355.124695,342.097107 
	C355.497467,342.619629 355.870209,343.142151 356.242981,343.664673 
	C358.494476,342.775604 360.745972,341.886536 362.997467,340.997437 
z"/>
<path fill="#3BACBF" opacity="1.000000" stroke="none" 
	d="
M401.865387,338.001526 
	C404.956451,337.991882 408.047516,337.982239 411.557739,338.366425 
	C411.988953,340.459717 412.001038,342.159149 412.013092,343.858643 
	C408.758209,343.802002 405.503326,343.745361 402.098694,342.928650 
	C401.921112,340.779510 401.893250,339.390503 401.865387,338.001526 
z"/>
<path fill="#2CA6BB" opacity="1.000000" stroke="none" 
	d="
M391.892700,337.738129 
	C391.892700,337.738129 391.898590,337.541016 392.430298,337.403442 
	C395.168335,337.265869 397.374603,337.265869 400.333710,337.265869 
	C399.904663,340.393311 399.521606,343.185455 399.138550,345.977570 
	C396.065735,347.167542 396.150482,347.113281 394.641846,344.757324 
	C394.105957,343.920471 393.047455,343.418274 392.115112,342.030579 
	C391.966034,340.111298 391.929352,338.924713 391.892700,337.738129 
z"/>
<path fill="#3BACBF" opacity="1.000000" stroke="none" 
	d="
M140.760925,343.865356 
	C137.906128,344.214874 135.051895,344.764954 132.196136,344.772949 
	C131.481873,344.774963 130.302765,343.103973 130.142502,342.076294 
	C129.818390,339.997986 130.045837,337.833679 130.045837,335.020477 
	C133.490158,335.020477 136.720978,335.020477 140.316162,335.452515 
	C138.039520,336.300507 135.398514,336.716522 133.137939,337.072601 
	C133.137939,338.744476 133.137939,340.369965 133.137939,341.293457 
	C135.768631,342.181030 138.264786,343.023193 140.760925,343.865356 
z"/>
<path fill="#F4FAFA" opacity="1.000000" stroke="none" 
	d="
M273.174652,151.053619 
	C273.128326,171.076935 273.081970,191.100266 272.989594,211.594131 
	C272.627319,211.397614 272.034912,210.730484 272.035034,210.063492 
	C272.039368,190.166351 272.102325,170.269211 272.602783,150.492416 
	C273.049469,150.612747 273.174652,151.053619 273.174652,151.053619 
z"/>
<path fill="#3BACBF" opacity="1.000000" stroke="none" 
	d="
M391.499451,337.806702 
	C391.929352,338.924713 391.966034,340.111298 391.975220,341.742981 
	C390.141479,346.691437 386.454498,344.714478 383.096863,343.942200 
	C383.832733,341.475739 384.805328,339.755096 385.658234,338.246277 
	C385.577179,338.211426 384.343536,337.680939 383.109863,337.150452 
	C385.775299,337.392059 388.440735,337.633636 391.499451,337.806702 
z"/>
<path fill="#2CA6BB" opacity="1.000000" stroke="none" 
	d="
M197.128464,344.008331 
	C192.919189,346.484924 189.933655,345.128876 187.331680,340.852783 
	C186.672119,340.401855 186.447662,340.194244 186.108704,339.786224 
	C186.033493,339.349396 186.017868,339.172394 186.139618,338.772491 
	C186.555862,338.343567 186.834702,338.137512 187.113556,337.931458 
	C190.057190,337.626160 193.000839,337.320862 196.430237,337.488251 
	C198.092133,343.261200 192.297485,339.353546 191.376785,341.894653 
	C193.405151,342.640045 195.266800,343.324188 197.128464,344.008331 
z"/>
<path fill="#83C9D5" opacity="1.000000" stroke="none" 
	d="
M298.633911,133.099701 
	C299.160431,149.612289 299.283051,166.062515 299.725220,182.799347 
	C299.583435,183.675125 299.122040,184.264297 298.001923,185.694748 
	C298.001923,175.127853 298.111298,165.545410 297.966644,155.966782 
	C297.854919,148.570221 297.414215,141.178802 297.183197,133.783112 
	C297.175781,133.545639 297.865295,133.286407 298.633911,133.099701 
z"/>
<path fill="#21A2B9" opacity="1.000000" stroke="none" 
	d="
M315.085632,344.054199 
	C312.060059,345.563965 309.163025,345.880554 306.233765,342.594574 
	C305.872955,340.758453 305.873688,339.467468 305.874390,338.176453 
	C308.805023,337.879913 311.735687,337.583374 314.839386,338.043213 
	C313.149445,339.889771 311.286407,340.979919 309.533844,342.005432 
	C311.318146,342.663879 313.201874,343.359039 315.085632,344.054199 
z"/>
<path fill="#CBD1E0" opacity="1.000000" stroke="none" 
	d="
M116.156853,285.943359 
	C116.156853,282.825836 116.156853,279.708313 116.156853,276.174438 
	C128.070251,276.174438 139.667587,276.174438 152.005157,276.174438 
	C152.005157,273.193573 152.005157,270.608856 152.022430,267.576813 
	C152.501190,270.209015 152.962677,273.288513 153.500870,276.879822 
	C141.114426,276.879822 129.313690,276.879822 117.032219,276.879822 
	C117.032219,279.884033 117.032219,282.471222 116.832336,285.495422 
	C116.632446,285.932495 116.156853,285.943359 116.156853,285.943359 
z"/>
<path fill="#CBD1E0" opacity="1.000000" stroke="none" 
	d="
M151.888138,313.932220 
	C151.888138,311.153015 151.888138,308.373810 151.888138,305.107056 
	C140.031723,305.107056 128.380371,305.107056 115.997726,305.107056 
	C115.997726,301.748047 115.997726,298.849487 116.318153,295.505981 
	C116.638580,295.061035 117.136719,295.036591 117.136719,295.036591 
	C117.136719,297.829346 117.136719,300.622131 117.136719,303.877014 
	C129.007904,303.877014 140.816528,303.877014 152.979736,303.877014 
	C152.979736,307.254272 152.979736,310.182861 152.670135,313.559753 
	C152.360550,314.008087 151.888138,313.932220 151.888138,313.932220 
z"/>
<path fill="#2CA6BB" opacity="1.000000" stroke="none" 
	d="
M425.932922,344.061493 
	C423.722870,343.228455 422.036591,341.673431 423.213104,339.373962 
	C423.825073,338.177856 425.919067,337.512817 427.474518,337.094391 
	C428.862274,336.721100 430.430084,337.016998 432.411011,337.488770 
	C433.930725,343.309357 428.615906,339.489929 427.214691,342.082916 
	C429.048523,342.513489 430.725159,342.907196 432.401764,343.300873 
	C432.372559,343.554413 432.343323,343.807953 432.314117,344.061493 
	C430.187042,344.061493 428.059998,344.061493 425.932922,344.061493 
z"/>
<path fill="#B6DFE4" opacity="1.000000" stroke="none" 
	d="
M151.945847,336.946625 
	C155.029953,335.955566 158.109177,334.946899 161.228638,334.083588 
	C161.300415,334.063721 161.818161,335.687683 162.153336,336.534821 
	C162.185471,336.616028 162.431458,336.695770 162.523697,336.654480 
	C162.805817,336.528198 163.061340,336.342499 163.666962,336.492004 
	C164.016663,337.240082 164.026611,337.676056 163.908310,338.446106 
	C163.498734,339.879059 163.217392,340.977905 162.912720,342.037598 
	C162.889404,341.998444 162.949020,341.929504 162.949020,341.929504 
	C161.883606,342.634125 160.818176,343.338715 159.377792,344.033447 
	C159.002823,344.023529 158.981888,344.029480 159.008545,343.643860 
	C158.974838,342.138092 158.914474,341.017914 158.856613,339.944153 
	C157.239944,339.764465 155.822479,339.606934 154.405029,339.449402 
	C154.413742,339.145599 154.422455,338.841797 154.431168,338.538025 
	C155.722824,338.255280 157.014481,337.972534 158.306152,337.689758 
	C158.281708,337.465057 158.257278,337.240326 158.232849,337.015594 
	C156.146271,337.015594 154.059708,337.015594 151.956818,337.002014 
	C151.940506,336.988464 151.945847,336.946625 151.945847,336.946625 
z"/>
<path fill="#435398" opacity="1.000000" stroke="none" 
	d="
M471.388000,314.624359 
	C471.020874,297.913300 471.014160,280.993103 471.012512,263.615845 
	C471.475525,263.248291 472.335358,263.341492 472.334595,263.426819 
	C472.179047,280.423340 471.962708,297.419250 471.388000,314.624359 
z"/>
<path fill="#F4FAFA" opacity="1.000000" stroke="none" 
	d="
M141.124268,343.929626 
	C138.264786,343.023193 135.768631,342.181030 133.137939,341.293457 
	C133.137939,340.369965 133.137939,338.744476 133.137939,337.072601 
	C135.398514,336.716522 138.039520,336.300507 140.763931,335.517761 
	C141.409195,335.441803 141.971054,335.732605 142.659241,336.388641 
	C142.842300,339.162750 142.899017,341.571655 142.964691,343.986816 
	C142.973633,343.993103 142.957108,343.964722 142.957108,343.964722 
	C142.467285,343.974426 141.977448,343.984131 141.124268,343.929626 
z"/>
<path fill="#6F7BB0" opacity="1.000000" stroke="none" 
	d="
M454.423218,314.682861 
	C454.020538,297.923950 454.008820,280.990021 454.016296,263.597656 
	C454.361572,263.797241 454.972595,264.455444 454.972046,265.113129 
	C454.958557,281.578064 454.880646,298.042938 454.423218,314.682861 
z"/>
<path fill="#F4FAFA" opacity="1.000000" stroke="none" 
	d="
M151.428070,313.970032 
	C151.888138,313.932220 152.360550,314.008087 152.599579,314.017944 
	C152.552521,314.334961 152.267181,314.910034 151.980194,314.910858 
	C136.740967,314.954285 121.501595,314.949249 105.980469,314.949249 
	C106.058136,313.212860 106.123116,311.760132 106.575455,310.136597 
	C107.046669,311.123810 107.130547,312.281860 107.255554,314.007874 
	C121.817787,314.007874 136.392899,314.007874 151.428070,313.970032 
z"/>
<path fill="#A5ADCC" opacity="1.000000" stroke="none" 
	d="
M445.670898,265.220673 
	C446.055939,281.370544 446.017822,297.657257 445.959381,314.402283 
	C445.630096,314.376953 445.050537,313.892822 445.051483,313.409760 
	C445.082581,297.392273 445.169250,281.374908 445.670898,265.220673 
z"/>
<path fill="#CFEAEE" opacity="1.000000" stroke="none" 
	d="
M426.127991,344.453064 
	C428.059998,344.061493 430.187042,344.061493 432.314117,344.061493 
	C432.343323,343.807953 432.372559,343.554413 432.401764,343.300873 
	C430.725159,342.907196 429.048523,342.513489 427.214691,342.082916 
	C428.615906,339.489929 433.930725,343.309357 432.835693,337.554382 
	C433.490540,336.894379 434.213226,336.640015 434.984558,337.107544 
	C435.033142,339.773804 435.033142,341.718170 435.033142,343.662537 
	C437.618011,337.693542 437.618011,337.693542 440.671997,339.825562 
	C439.448517,341.087799 438.225067,342.350037 437.001617,343.612274 
	C437.302979,344.023071 437.604340,344.433838 437.905701,344.844635 
	C434.044830,344.844635 430.183960,344.844635 426.127991,344.453064 
z"/>
<path fill="#B6DFE4" opacity="1.000000" stroke="none" 
	d="
M305.547150,337.980042 
	C305.873688,339.467468 305.872955,340.758453 305.876282,342.436768 
	C304.785339,343.269592 303.690338,343.715088 302.295044,344.176758 
	C300.160919,343.462341 298.327118,342.731750 296.373840,341.953522 
	C297.030212,339.294922 303.124115,343.218414 301.564453,337.471497 
	C302.270172,336.062195 303.030487,335.050323 304.275055,333.393982 
	C304.670532,335.231293 304.945221,336.507477 305.547150,337.980042 
z"/>
<path fill="#CFEAEE" opacity="1.000000" stroke="none" 
	d="
M145.907532,336.964905 
	C147.681686,336.885712 149.455856,336.806519 151.587921,336.836975 
	C151.945847,336.946625 151.940506,336.988464 151.964966,337.393921 
	C151.560150,341.699768 153.600037,342.619263 157.033676,342.182648 
	C155.535843,342.549377 154.038010,342.916107 152.540176,343.282867 
	C152.584488,343.531738 152.628799,343.780609 152.673111,344.029480 
	C154.776047,344.029480 156.878967,344.029480 158.981888,344.029480 
	C158.981888,344.029480 159.002823,344.023529 159.005188,344.036499 
	C153.763031,344.299896 148.518524,344.550293 143.115570,344.382690 
	C142.957108,343.964722 142.973633,343.993103 143.412338,343.987061 
	C145.793060,343.886566 147.735077,343.792114 149.595535,343.701599 
	C150.429550,337.689514 150.429550,337.689514 146.657776,337.000427 
	C146.240616,336.999207 146.074081,336.982056 145.907532,336.964905 
z"/>
<path fill="#53B6C6" opacity="1.000000" stroke="none" 
	d="
M442.041290,337.942017 
	C443.499268,337.002136 444.957214,336.062225 446.415192,335.122314 
	C446.962280,336.762665 448.005920,338.428284 447.923950,340.036591 
	C447.832581,341.829071 450.586395,346.781342 444.324951,343.625793 
	C443.355316,341.374176 442.698303,339.658081 442.041290,337.942017 
z"/>
<path fill="#83C9D5" opacity="1.000000" stroke="none" 
	d="
M269.286255,209.776184 
	C268.888794,196.979553 268.949646,184.090912 268.944550,171.202271 
	C268.944122,170.098099 268.505554,168.994080 268.092499,167.516541 
	C268.613220,167.868027 269.919159,168.591675 269.920715,169.318054 
	C269.948975,182.773224 269.821686,196.228729 269.286255,209.776184 
z"/>
<path fill="#F4FAFA" opacity="1.000000" stroke="none" 
	d="
M107.862640,266.569275 
	C107.715347,268.462860 107.133888,269.974274 107.123520,271.489594 
	C107.042259,283.358093 107.070534,295.227386 107.013550,307.565186 
	C106.638069,307.045471 106.037552,306.058472 106.032158,305.068268 
	C105.967064,293.113647 105.948944,281.158112 106.063644,269.204224 
	C106.073341,268.194031 107.125305,267.193817 107.862640,266.569275 
z"/>
<path fill="#53B6C6" opacity="1.000000" stroke="none" 
	d="
M237.625549,337.827515 
	C238.545135,339.928284 239.196533,342.002228 239.903946,344.442688 
	C239.470032,344.552490 238.980103,344.295776 237.918640,343.722595 
	C235.447617,343.156219 233.548126,342.906311 231.623978,342.653137 
	C231.623978,341.091736 231.623978,339.717560 231.623978,338.451691 
	C233.255722,337.983734 234.628189,337.590118 236.000641,337.196503 
	C236.452881,337.397888 236.905136,337.599304 237.625549,337.827515 
z"/>
<path fill="#3BACBF" opacity="1.000000" stroke="none" 
	d="
M146.908386,336.984497 
	C150.429550,337.689514 150.429550,337.689514 149.595535,343.701599 
	C147.735077,343.792114 145.793060,343.886566 143.403381,343.980774 
	C142.899017,341.571655 142.842300,339.162750 142.999817,336.434235 
	C143.214050,336.114594 143.413712,335.938965 143.619446,336.421936 
	C144.054276,338.553772 144.283356,340.202667 144.512421,341.851532 
	C144.928497,341.905762 145.344574,341.959961 145.760651,342.014160 
	C146.143234,340.337616 146.525818,338.661041 146.908386,336.984497 
z"/>
<path fill="#6F7BB0" opacity="1.000000" stroke="none" 
	d="
M159.631958,277.091492 
	C159.994659,289.398499 159.984390,301.664307 159.958923,314.387756 
	C159.536148,314.598969 158.770035,314.349030 158.772415,314.106598 
	C158.893295,301.754120 159.079666,289.402222 159.631958,277.091492 
z"/>
<path fill="#F4FAFA" opacity="1.000000" stroke="none" 
	d="
M295.284729,191.037231 
	C294.927917,178.036591 294.861633,164.942856 294.905640,151.386383 
	C295.347473,152.404709 295.955139,153.883591 295.966675,155.367126 
	C296.054047,166.613403 296.024597,177.860596 296.161621,189.567169 
	C296.052887,190.332596 295.814087,190.638367 295.284729,191.037231 
z"/>
<path fill="#CFEAEE" opacity="1.000000" stroke="none" 
	d="
M197.474396,344.170532 
	C195.266800,343.324188 193.405151,342.640045 191.376785,341.894653 
	C192.297485,339.353546 198.092133,343.261200 196.846848,337.555664 
	C199.686310,335.426941 199.495453,338.005432 200.014832,339.516113 
	C200.557617,341.094849 201.015259,342.702820 201.737000,345.029388 
	C200.533279,344.815277 199.176804,344.574036 197.474396,344.170532 
z"/>
<path fill="#CFEAEE" opacity="1.000000" stroke="none" 
	d="
M218.431534,344.069153 
	C220.046967,337.417450 213.621796,339.616608 211.151306,336.923950 
	C212.845200,336.828491 214.561234,336.855591 216.218292,336.556244 
	C216.664001,336.475739 216.930374,335.402527 217.144775,334.470825 
	C218.539642,334.893646 220.068802,335.630646 220.535248,335.855438 
	C220.733902,338.502014 220.889969,340.581268 221.418335,342.652466 
	C221.790634,342.644348 221.694595,342.619568 221.694595,342.619568 
	C220.735306,343.094910 219.776016,343.570251 218.431534,344.069153 
z"/>
<path fill="#3BACBF" opacity="1.000000" stroke="none" 
	d="
M441.825989,337.602905 
	C442.698303,339.658081 443.355316,341.374176 444.004395,343.465759 
	C438.169922,347.091766 441.610016,341.953339 440.823578,340.164703 
	C437.618011,337.693542 437.618011,337.693542 435.033142,343.662537 
	C435.033142,341.718170 435.033142,339.773804 435.098541,337.405701 
	C437.312836,337.075928 439.461761,337.169891 441.825989,337.602905 
z"/>
<path fill="#A5ADCC" opacity="1.000000" stroke="none" 
	d="
M117.596634,295.037292 
	C117.136719,295.036591 116.638580,295.061035 116.389282,295.056580 
	C117.632721,294.682831 119.122780,294.006805 120.618645,293.993744 
	C130.732117,293.905243 140.846817,293.956970 151.419785,293.991943 
	C150.417267,294.359680 148.958588,294.979645 147.494507,294.992645 
	C137.682480,295.079895 127.869331,295.037994 117.596634,295.037292 
z"/>
<path fill="#CFEAEE" opacity="1.000000" stroke="none" 
	d="
M247.950012,167.642578 
	C248.184479,178.319382 248.213043,188.655533 248.361420,199.442505 
	C247.683823,199.255447 246.183746,198.606018 246.194000,197.981384 
	C246.355835,188.121811 246.704193,178.265137 247.052109,168.409317 
	C247.065414,168.032516 247.503815,167.670715 247.950012,167.642578 
z"/>
<path fill="#6F7BB0" opacity="1.000000" stroke="none" 
	d="
M246.956940,311.522339 
	C246.603943,309.773987 246.091095,307.562347 246.066940,305.345428 
	C245.967834,296.249207 246.017548,287.151306 246.014679,277.595154 
	C246.341141,278.626984 246.932114,280.115143 246.946487,281.608887 
	C247.040985,291.424103 247.011093,301.240570 246.956940,311.522339 
z"/>
<path fill="#A5ADCC" opacity="1.000000" stroke="none" 
	d="
M116.368912,286.305023 
	C116.156853,285.943359 116.632446,285.932495 116.869591,285.950500 
	C128.270279,286.034363 139.433807,286.100220 150.800690,286.548981 
	C139.529663,286.843506 128.055313,286.755096 116.368912,286.305023 
z"/>
<path fill="#6F7BB0" opacity="1.000000" stroke="none" 
	d="
M341.936035,310.493652 
	C341.611694,307.748596 341.164581,304.542389 341.116455,301.330170 
	C341.000275,293.577789 341.070587,285.822632 341.066650,277.610474 
	C341.361511,278.998688 341.889191,280.842438 341.909882,282.691864 
	C342.011932,291.803680 341.979614,300.916962 341.936035,310.493652 
z"/>
<path fill="#435398" opacity="1.000000" stroke="none" 
	d="
M360.565002,299.078003 
	C361.259338,298.741760 362.411621,298.053009 363.570648,298.041382 
	C372.356537,297.953339 381.143738,297.997986 390.387634,298.008667 
	C389.345764,298.349335 387.850006,298.953064 386.347260,298.971008 
	C377.907806,299.071808 369.466614,299.031342 360.565002,299.078003 
z"/>
<path fill="#CFEAEE" opacity="1.000000" stroke="none" 
	d="
M382.724487,336.983093 
	C384.343536,337.680939 385.577179,338.211426 385.658234,338.246277 
	C384.805328,339.755096 383.832733,341.475739 382.868530,343.591827 
	C382.458313,344.307281 382.039734,344.627228 381.352966,344.994904 
	C381.084778,342.635986 381.084778,340.229340 381.084778,336.896118 
	C378.883728,336.896118 376.887421,336.896118 374.442383,336.887695 
	C376.775452,336.858093 379.557281,336.836945 382.724487,336.983093 
z"/>
<path fill="#A5ADCC" opacity="1.000000" stroke="none" 
	d="
M437.104065,314.347534 
	C436.979858,304.881134 437.091675,295.714569 437.538818,286.291626 
	C437.696136,295.572601 437.518097,305.109985 437.104065,314.347534 
z"/>
<path fill="#F4FAFA" opacity="1.000000" stroke="none" 
	d="
M389.773682,305.640320 
	C380.563202,305.938416 371.243073,305.803802 361.603851,305.434814 
	C370.744537,305.202850 380.204285,305.205261 389.773682,305.640320 
z"/>
<path fill="#F4FAFA" opacity="1.000000" stroke="none" 
	d="
M361.173706,314.447998 
	C369.985535,314.010193 378.982269,313.969635 388.439270,313.920837 
	C388.140594,314.271423 387.382690,314.939392 386.622620,314.941864 
	C378.201477,314.969177 369.779999,314.893280 361.173706,314.447998 
z"/>
<path fill="#F4FAFA" opacity="1.000000" stroke="none" 
	d="
M256.591064,282.105286 
	C256.518860,284.723236 258.034027,285.107605 260.401855,285.082153 
	C267.040222,285.010773 273.680878,285.155212 280.586609,285.530273 
	C272.639130,285.846039 264.425690,285.846039 256.031372,285.846039 
	C256.095032,284.552338 256.150818,283.418549 256.591064,282.105286 
z"/>
<path fill="#CBD1E0" opacity="1.000000" stroke="none" 
	d="
M199.070801,314.358276 
	C198.877960,305.302704 198.905182,296.570831 198.978485,287.365082 
	C199.354202,287.863068 199.984726,288.840729 199.966263,289.805939 
	C199.807632,298.099243 199.531738,306.390320 199.070801,314.358276 
z"/>
<path fill="#3BACBF" opacity="1.000000" stroke="none" 
	d="
M235.574860,337.130615 
	C234.628189,337.590118 233.255722,337.983734 231.623978,338.451691 
	C231.623978,339.717560 231.623978,341.091736 231.623978,342.653137 
	C233.548126,342.906311 235.447617,343.156219 237.640320,343.625488 
	C235.421967,344.154388 232.910385,344.463959 230.194656,344.005920 
	C229.991577,341.210846 229.992645,339.183350 229.993713,337.155853 
	C231.712173,337.125488 233.430634,337.095123 235.574860,337.130615 
z"/>
<path fill="#6F7BB0" opacity="1.000000" stroke="none" 
	d="
M168.413544,314.707397 
	C168.144287,306.090332 168.275101,297.310455 168.743591,288.274353 
	C168.992050,296.860291 168.902832,305.702423 168.413544,314.707397 
z"/>
<path fill="#F4FAFA" opacity="1.000000" stroke="none" 
	d="
M320.404968,158.918381 
	C319.986908,150.777420 319.961700,142.426483 319.928619,133.619125 
	C320.282104,133.738312 320.957397,134.313889 320.957458,134.889557 
	C320.958618,142.829163 320.866821,150.768784 320.404968,158.918381 
z"/>
<path fill="#CFEAEE" opacity="1.000000" stroke="none" 
	d="
M315.408203,344.051208 
	C313.201874,343.359039 311.318146,342.663879 309.533844,342.005432 
	C311.286407,340.979919 313.149445,339.889771 315.065948,338.390808 
	C315.595215,337.655609 316.070984,337.329254 316.840546,337.070984 
	C317.113251,339.195862 317.092163,341.252625 317.039429,343.755157 
	C316.582092,344.150055 316.156433,344.099152 315.408203,344.051208 
z"/>
<path fill="#CFEAEE" opacity="1.000000" stroke="none" 
	d="
M399.494141,345.987274 
	C399.521606,343.185455 399.904663,340.393311 400.333710,337.265869 
	C397.374603,337.265869 395.168335,337.265869 392.523407,337.370911 
	C394.642761,335.338806 398.739624,335.407227 401.509705,337.814453 
	C401.893250,339.390503 401.921112,340.779510 401.908569,342.583649 
	C401.195343,343.998169 400.522552,344.997559 399.494141,345.987274 
z"/>
<path fill="#2CA6BB" opacity="1.000000" stroke="none" 
	d="
M412.378296,343.718567 
	C412.001038,342.159149 411.988953,340.459717 411.967896,338.335236 
	C414.358765,337.562561 416.758606,337.214935 419.506409,336.816895 
	C418.620392,339.654816 418.041229,341.509857 417.731110,342.503113 
	C416.936676,341.509094 415.752716,340.027740 414.568756,338.546417 
	C414.134583,338.801849 413.700378,339.057281 413.266174,339.312714 
	C413.091949,340.734650 412.917725,342.156616 412.378296,343.718567 
z"/>
<path fill="#53B6C6" opacity="1.000000" stroke="none" 
	d="
M273.631470,151.039154 
	C273.174652,151.053619 273.049469,150.612747 273.027161,150.384888 
	C280.211975,150.154633 287.419098,150.152267 294.831726,150.536438 
	C288.054260,150.956879 281.071259,150.990799 273.631470,151.039154 
z"/>
<path fill="#53B6C6" opacity="1.000000" stroke="none" 
	d="
M229.672852,337.154327 
	C229.992645,339.183350 229.991577,341.210846 229.975708,343.677490 
	C229.176880,343.751160 228.392868,343.385651 227.292450,342.523865 
	C226.999741,340.648102 227.023407,339.268616 227.047089,337.889130 
	C227.815384,337.643707 228.583679,337.398254 229.672852,337.154327 
z"/>
<path fill="#2CA6BB" opacity="1.000000" stroke="none" 
	d="
M374.085724,343.358521 
	C374.789825,342.058777 375.620117,341.035889 376.450439,340.012970 
	C376.912048,340.252014 377.373688,340.491058 377.835297,340.730133 
	C377.435242,341.783936 377.035156,342.837738 376.297150,343.972473 
	C375.376801,343.914062 374.794342,343.774719 374.085724,343.358521 
z"/>
<path fill="#F4FAFA" opacity="1.000000" stroke="none" 
	d="
M146.657776,337.000427 
	C146.525818,338.661041 146.143234,340.337616 145.760651,342.014160 
	C145.344574,341.959961 144.928497,341.905762 144.512421,341.851532 
	C144.283356,340.202667 144.054276,338.553772 143.721939,336.506653 
	C144.172073,336.346222 144.725479,336.584076 145.593201,336.893433 
	C146.074081,336.982056 146.240616,336.999207 146.657776,337.000427 
z"/>
<path fill="#B6DFE4" opacity="1.000000" stroke="none" 
	d="
M186.002228,338.995361 
	C186.017868,339.172394 186.033493,339.349396 186.061005,340.137390 
	C186.371902,341.758453 186.670883,342.768463 186.969864,343.778503 
	C187.052948,344.173096 187.136032,344.567688 187.219116,344.962280 
	C186.471558,344.645020 185.375610,344.530151 185.049240,343.968262 
	C184.377869,342.812347 184.117981,341.417450 183.307312,340.291962 
	C182.890442,339.855682 182.855011,339.248291 183.183563,338.326599 
	C184.365768,338.339996 185.183990,338.667694 186.002228,338.995361 
z"/>
<path fill="#CFEAEE" opacity="1.000000" stroke="none" 
	d="
M164.036560,338.112000 
	C164.026611,337.676056 164.016663,337.240082 164.002625,336.477112 
	C164.548523,336.418732 165.098557,336.687378 165.968750,337.045288 
	C166.244095,339.161743 166.199265,341.188904 166.064133,343.646179 
	C165.040848,343.567749 164.107849,343.059235 163.061935,342.240112 
	C162.949020,341.929504 162.889404,341.998444 163.300873,342.033783 
	C163.820419,340.750092 163.928497,339.431030 164.036560,338.112000 
z"/>
<path fill="#3BACBF" opacity="1.000000" stroke="none" 
	d="
M340.324341,346.880005 
	C341.440002,345.888916 342.910828,344.957153 344.746826,344.044556 
	C343.634460,345.022217 342.156982,345.980743 340.324341,346.880005 
z"/>
<path fill="#1FA2B8" opacity="1.000000" stroke="none" 
	d="
M226.834015,337.623535 
	C227.023407,339.268616 226.999741,340.648102 226.967957,342.441284 
	C226.770081,342.886047 226.580322,342.917114 226.103546,342.691162 
	C225.816528,342.434113 225.833008,342.054169 225.833008,342.054169 
	C226.095657,340.488770 226.358292,338.923370 226.834015,337.623535 
z"/>
<path fill="#21A2B9" opacity="1.000000" stroke="none" 
	d="
M186.139618,338.772522 
	C185.183990,338.667694 184.365768,338.339996 183.246475,337.860626 
	C182.945404,337.708954 183.008224,337.411682 183.024170,337.260620 
	C184.269638,337.170074 185.499176,337.230591 186.921112,337.611298 
	C186.834702,338.137512 186.555862,338.343567 186.139618,338.772522 
z"/>
<path fill="#21A2B9" opacity="1.000000" stroke="none" 
	d="
M186.980682,343.442352 
	C186.670883,342.768463 186.371902,341.758453 186.120605,340.397217 
	C186.447662,340.194244 186.672119,340.401855 186.941986,340.877441 
	C187.025391,341.759430 187.008438,342.432800 186.980682,343.442352 
z"/>
<path fill="#83C9D5" opacity="1.000000" stroke="none" 
	d="
M225.474533,342.040253 
	C225.833008,342.054169 225.816528,342.434113 225.822983,342.624268 
	C224.721863,342.861938 223.614273,342.909424 222.100647,342.788239 
	C221.694595,342.619568 221.790634,342.644348 221.767654,342.682983 
	C222.868469,342.489838 223.992264,342.258087 225.474533,342.040253 
z"/>
<path fill="#B6DFE4" opacity="1.000000" stroke="none" 
	d="
M182.467850,343.714600 
	C182.228012,342.952148 182.323608,342.077179 182.662567,340.964661 
	C182.871735,341.685394 182.837509,342.643768 182.467850,343.714600 
z"/>
<path fill="#3BACBF" opacity="1.000000" stroke="none" 
	d="
M338.668640,337.103088 
	C338.417694,337.252808 337.843048,337.317535 337.138672,337.162811 
	C337.454254,336.968262 337.899597,336.993195 338.668640,337.103088 
z"/>
<path fill="#3BACBF" opacity="1.000000" stroke="none" 
	d="
M344.710693,337.996948 
	C344.904724,338.226807 344.763367,338.492981 344.353882,338.852295 
	C344.268311,338.687073 344.364838,338.382965 344.710693,337.996948 
z"/>
<path fill="#3BACBF" opacity="1.000000" stroke="none" 
	d="
M345.766022,337.158875 
	C345.858276,337.477570 345.632599,337.680420 345.133850,337.891754 
	C345.110474,337.674500 345.306244,337.388763 345.766022,337.158875 
z"/>
<path fill="#CFEAEE" opacity="1.000000" stroke="none" 
	d="
M165.986725,344.143311 
	C166.060593,344.184265 166.252548,344.355743 166.595337,344.629028 
	C166.371689,344.786560 166.157883,344.634216 165.986725,344.143311 
z"/>
<path fill="#CFEAEE" opacity="1.000000" stroke="none" 
	d="
M276.703918,215.250366 
	C277.052856,214.935028 277.658905,214.882812 278.727905,214.923950 
	C278.447571,215.182709 277.704285,215.348099 276.703918,215.250366 
z"/>
<path fill="#000000" opacity="1.000000" stroke="none" 
	d="
M223.118698,301.969208 
	C217.702240,302.809998 215.894455,300.643951 215.920074,295.737000 
	C215.970779,286.026917 215.839905,285.989838 225.444656,285.989349 
	C227.265335,285.989258 229.242737,285.535156 230.869934,286.096313 
	C233.303268,286.935455 236.951752,288.069702 237.457306,289.831818 
	C238.329773,292.872772 237.934402,296.846313 236.578369,299.725586 
	C235.865570,301.239075 232.025360,301.466461 229.532120,301.894379 
	C227.602249,302.225647 225.571014,301.966339 223.118698,301.969208 
z"/>
<path fill="#000000" opacity="1.000000" stroke="none" 
	d="
M332.945038,297.531860 
	C331.798157,298.976501 330.837952,300.544403 329.553131,300.883881 
	C326.879059,301.590393 324.035858,301.895660 321.257355,301.926025 
	C310.314972,302.045654 310.376923,301.985718 310.960022,291.034454 
	C311.149048,287.484741 312.859467,285.963013 316.270386,285.989349 
	C319.264008,286.012482 322.257996,285.979065 325.251740,285.994232 
	C331.131500,286.024078 332.965393,287.828644 333.005676,293.606262 
	C333.013794,294.770325 332.992493,295.934601 332.945038,297.531860 
z"/>
<path fill="#000000" opacity="1.000000" stroke="none" 
	d="
M416.940002,299.048279 
	C419.720520,298.984985 422.056213,298.696991 424.332886,298.946930 
	C425.595764,299.085541 426.759979,300.122772 427.968628,300.755005 
	C427.000031,302.163483 426.204010,304.603058 425.032440,304.799164 
	C420.364746,305.580597 415.575775,305.917023 410.841370,305.837769 
	C409.548187,305.816101 407.531250,303.967712 407.173157,302.608185 
	C406.448059,299.855469 408.407288,298.892975 411.013580,299.029938 
	C412.827850,299.125305 414.651215,299.048279 416.940002,299.048279 
z"/>
<path fill="#000000" opacity="1.000000" stroke="none" 
	d="
M275.436890,298.999878 
	C278.737152,298.969208 281.596680,298.969208 284.476105,298.969208 
	C285.422241,302.749023 285.142303,304.968750 280.912781,305.056763 
	C277.131439,305.135406 273.354584,305.626587 269.584991,306.023163 
	C264.761810,306.530579 263.142700,304.381134 264.486572,299.030518 
	C267.835754,299.030518 271.415924,299.030518 275.436890,298.999878 
z"/>
<path fill="#000000" opacity="1.000000" stroke="none" 
	d="
M377.631348,286.030090 
	C378.979095,287.663666 379.918640,289.226135 380.858215,290.788605 
	C379.171936,291.526886 377.513611,292.814178 375.794159,292.901794 
	C370.378998,293.177826 364.940887,293.003510 359.556244,293.003510 
	C359.004395,285.541473 366.891174,282.615570 377.631348,286.030090 
z"/>
<path fill="#3BACBF" opacity="1.000000" stroke="none" 
	d="
M340.010162,339.986572 
	C340.612091,340.629333 341.214020,341.272095 341.815979,341.914886 
	C341.563599,342.110809 341.311218,342.306702 341.058838,342.502625 
	C340.698639,341.883514 340.338440,341.264435 339.988708,340.322937 
	C339.999207,340.000580 340.010162,339.986572 340.010162,339.986572 
z"/>
<path fill="#3BACBF" opacity="1.000000" stroke="none" 
	d="
M339.991821,340.006409 
	C339.984467,340.012268 339.577850,339.757446 339.577850,339.757446 
	C339.577850,339.757446 339.899963,339.759644 339.955078,339.873108 
	C340.010162,339.986572 339.999207,340.000580 339.991821,340.006409 
z"/>
<path fill="#3BACBF" opacity="1.000000" stroke="none" 
	d="
M362.998718,340.998718 
	C360.745972,341.886536 358.494476,342.775604 356.242981,343.664673 
	C355.870209,343.142151 355.497467,342.619629 355.124695,342.097107 
	C355.964844,340.781097 356.926941,338.307922 357.620667,338.381073 
	C359.249207,338.552704 360.749390,339.942261 362.652069,340.921265 
	C363.002563,341.003662 363.000000,341.000000 362.998718,340.998718 
z"/>
<path fill="#2CA6BB" opacity="1.000000" stroke="none" 
	d="
M159.008545,343.643860 
	C156.878967,344.029480 154.776047,344.029480 152.673111,344.029480 
	C152.628799,343.780609 152.584488,343.531738 152.540176,343.282867 
	C154.038010,342.916107 155.535843,342.549377 157.033676,342.182648 
	C153.600037,342.619263 151.560150,341.699768 151.981293,337.407471 
	C154.059708,337.015594 156.146271,337.015594 158.232849,337.015594 
	C158.257278,337.240326 158.281708,337.465057 158.306152,337.689758 
	C157.014481,337.972534 155.722824,338.255280 154.431168,338.538025 
	C154.422455,338.841797 154.413742,339.145599 154.405029,339.449402 
	C155.822479,339.606934 157.239944,339.764465 158.856613,339.944153 
	C158.914474,341.017914 158.974838,342.138092 159.008545,343.643860 
z"/>
<path fill="#000000" opacity="1.000000" stroke="none" 
	d="
M163.908310,338.446106 
	C163.928497,339.431030 163.820419,340.750092 163.324188,342.072937 
	C163.217392,340.977905 163.498734,339.879059 163.908310,338.446106 
z"/>
</svg>