<!-- <?xml version="1.0" encoding="UTF-8"?>
<svg width="52px" height="52px" viewBox="0 0 52 52" version="1.1" xmlns="http://www.w3.org/2000/svg" xmlns:xlink="http://www.w3.org/1999/xlink">
  <title>MKP</title>
  <defs>
    <filter id="filter">
      <feColorMatrix type="matrix" values="0 0 0 0 0.262745 0 0 0 0 0.329412 0 0 0 0 0.866667 0 0 0 1.000000 0" />
    </filter>
  </defs>
  <g fill="none" stroke="none">
    <g filter="url(#filter)">
      <g>
        <rect x="0" y="4.26325641e-14" width="52" height="52" />
        <path d="M23.2968,26.3643 L11.87,19.9731 C11.606,19.8255 11.3864,19.6106 11.2335,19.3506 C11.0806,19.0905 11,18.7947 11,18.4934 C11,18.1921 11.0806,17.8963 11.2335,17.6362 C11.3864,17.3762 11.606,17.1613 11.87,17.0137 L23.2967,10.6222 C24.026,10.2143 24.8484,10 25.6849,10 C26.5215,10 27.3439,10.2143 28.0731,10.6222 L39.4999,17.0137 C39.7638,17.1613 39.9835,17.3762 40.1364,17.6362 C40.2893,17.8963 40.3699,18.1921 40.3699,18.4934 C40.3699,18.7947 40.2893,19.0905 40.1364,19.3506 C39.9835,19.6106 39.7638,19.8255 39.4999,19.9731 L28.0731,26.3643 C27.3439,26.7722 26.5215,26.9864 25.6849,26.9864 C24.8484,26.9864 24.026,26.7722 23.2968,26.3643 Z" id="Path" fill="#2196F3" fill-rule="nonzero" transform="translate(25.684950, 18.493200) rotate(180.000000) translate(-25.684950, -18.493200)" />
        <path d="M23.2349,37.8879 L6.87,28.7347 C6.6061,28.5871 6.3864,28.3722 6.2335,28.1122 C6.0806,27.8521 6,27.5563 6,27.255 C6,26.9537 6.0806,26.6578 6.2335,26.3978 C6.3864,26.1377 6.6061,25.9229 6.87,25.7752 L23.2349,16.6221 C23.9641,16.2143 24.7865,16 25.623,16 C26.4595,16 27.2819,16.2143 28.0111,16.6221 L44.376,25.7752 C44.6399,25.9229 44.8596,26.1377 45.0125,26.3978 C45.1654,26.6578 45.246,26.9537 45.246,27.255 C45.246,27.5563 45.1654,27.8521 45.0125,28.1122 C44.8596,28.3722 44.6399,28.5871 44.376,28.7347 L28.0111,37.8879 C27.2819,38.2957 26.4595,38.5099 25.623,38.5099 C24.7865,38.5099 23.9641,38.2957 23.2349,37.8879 Z" id="Path" fill="#2196F3" fill-rule="nonzero" opacity="0.7" transform="translate(25.623000, 27.254950) rotate(180.000000) translate(-25.623000, -27.254950)" />
        <path d="M23.6157447,51.02171 L0.86859567,38.2985735 C0.605087772,38.1511153 0.385747448,37.9366669 0.233097764,37.6769927 C0.0804480806,37.4174184 0,37.1220028 0,36.8211961 C0,36.5203894 0.0804480806,36.2250736 0.233097764,35.9653994 C0.385747448,35.7058251 0.605087772,35.4912769 0.86859567,35.3439185 L23.6158446,22.6210616 C24.3438508,22.2138793 25.1649044,22 26.0000349,22 C26.8351655,22 27.6562191,22.2138793 28.3842253,22.6210616 L51.1314243,35.3439185 C51.3948923,35.4912769 51.6142326,35.7058251 51.7668823,35.9653994 C51.919532,36.2250736 52,36.5203894 52,36.8211961 C52,37.1220028 51.919532,37.4174184 51.7668823,37.6769927 C51.6142326,37.9366669 51.3948923,38.1511153 51.1314243,38.2985735 L28.3842253,51.02171 C27.6562191,51.4288424 26.8351655,51.6427915 26.0000349,51.6427915 C25.1649044,51.6427915 24.3438508,51.4288424 23.6157447,51.02171 Z" id="Path" fill="#2196F3" fill-rule="nonzero" opacity="0.4" transform="translate(26.000000, 36.821396) rotate(180.000000) translate(-26.000000, -36.821396)" />
      </g>
    </g>
  </g>
</svg> -->
<!-- <?xml version="1.0" standalone="no"?>
<!DOCTYPE svg PUBLIC "-//W3C//DTD SVG 20010904//EN"
 "http://www.w3.org/TR/2001/REC-SVG-20010904/DTD/svg10.dtd">
<svg version="1.0" xmlns="http://www.w3.org/2000/svg"
 width="577.000000pt" height="433.000000pt" viewBox="0 0 577.000000 433.000000"
 preserveAspectRatio="xMidYMid meet">

<g transform="translate(0.000000,433.000000) scale(0.100000,-0.100000)"
fill="#000000" stroke="none">
<path d="M2697 3431 c-452 -99 -718 -567 -575 -1011 11 -36 25 -70 30 -76 5
-7 4 -23 -2 -38 -21 -57 -8 -48 40 26 l50 77 -17 63 c-22 82 -22 224 0 306 30
112 75 190 162 278 124 126 262 184 435 184 176 0 310 -58 442 -190 l86 -87
78 78 77 78 -52 60 c-184 212 -481 311 -754 252z"/>
<path d="M3488 3028 c-296 -293 -497 -539 -645 -785 -31 -51 -57 -93 -58 -93
-1 0 -47 27 -101 60 -54 33 -144 78 -199 99 -102 39 -201 68 -209 60 -11 -12
-136 -214 -136 -220 0 -9 37 -19 71 -19 95 0 375 -100 518 -185 129 -76 132
-75 174 35 86 229 366 687 668 1093 48 64 86 117 85 117 -2 0 -78 -73 -168
-162z"/>
<path d="M3596 3017 c-22 -28 -70 -95 -107 -149 l-68 -96 10 -64 c21 -128 -17
-303 -91 -419 -65 -100 -186 -197 -303 -241 -52 -20 -62 -29 -78 -63 -10 -22
-21 -53 -25 -69 l-7 -29 54 7 c236 31 469 204 583 433 58 116 71 177 71 338 0
128 -4 161 -23 222 l-22 72 24 55 c14 31 24 56 23 56 -1 0 -20 -24 -41 -53z"/>
<path d="M4490 1695 l-35 -13 -3 -241 -2 -241 40 0 40 0 0 255 c0 140 -1 254
-2 254 -2 -1 -19 -7 -38 -14z"/>
<path d="M4658 1693 l-38 -16 0 -238 0 -239 40 0 40 0 0 255 c0 140 -1 255 -2
254 -2 -1 -20 -8 -40 -16z"/>
<path d="M1288 1663 l-218 -3 0 -230 0 -230 220 0 220 0 0 45 0 45 -180 0
-180 0 0 55 0 55 175 0 175 0 0 35 0 35 -175 0 -175 0 0 55 0 55 180 0 180 0
0 45 c0 25 -1 44 -2 43 -2 -2 -101 -4 -220 -5z"/>
<path d="M2568 1528 l-4 -38 133 0 c121 0 133 -2 143 -19 5 -11 10 -30 10 -43
l0 -23 -133 3 c-161 4 -177 -3 -184 -84 -8 -94 32 -122 170 -123 82 -1 143 16
153 44 5 12 10 10 26 -10 11 -14 24 -25 29 -25 5 0 9 64 9 148 0 150 -2 161
-43 194 -1 1 -70 4 -154 7 l-151 6 -4 -37z m274 -176 c10 -10 10 -18 -3 -40
-15 -27 -16 -27 -114 -27 l-100 0 -3 30 c-6 47 18 57 121 53 50 -3 92 -9 99
-16z"/>
<path d="M1590 1380 l0 -180 40 0 40 0 0 128 c0 88 4 134 13 145 10 15 27 17
107 15 l95 -3 3 -142 3 -143 44 0 45 0 0 130 c0 206 -18 230 -169 230 -83 0
-97 -3 -118 -22 l-23 -21 0 21 c0 19 -6 22 -40 22 l-40 0 0 -180z"/>
<path d="M2095 1538 c-37 -33 -52 -123 -34 -198 19 -76 51 -92 171 -88 75 3
90 6 112 27 l26 24 0 -37 c0 -38 -14 -75 -34 -88 -6 -4 -39 -8 -72 -8 -58 0
-62 -2 -68 -26 -4 -15 -4 -29 -1 -32 14 -15 142 -14 178 1 69 29 77 57 77 265
l0 182 -40 0 c-36 0 -40 -3 -40 -25 l0 -24 -25 24 c-22 23 -31 25 -124 25 -89
0 -103 -2 -126 -22z m263 -60 c14 -14 16 -126 2 -148 -7 -12 -31 -15 -105 -15
-74 0 -98 3 -105 15 -14 22 -12 134 2 148 8 8 46 12 103 12 57 0 95 -4 103
-12z"/>
<path d="M3043 1536 c-26 -23 -28 -30 -32 -112 -6 -145 22 -174 170 -174 69 0
81 3 108 26 l31 26 0 -37 c0 -37 -14 -74 -34 -87 -6 -4 -39 -8 -72 -8 -58 0
-62 -2 -68 -26 -4 -15 -4 -29 -1 -33 4 -3 39 -7 78 -9 86 -4 131 15 159 68 15
30 18 59 18 212 l0 178 -40 0 c-34 0 -40 -3 -40 -22 l0 -21 -23 21 c-21 20
-34 22 -125 22 -92 0 -103 -2 -129 -24z m265 -58 c14 -14 16 -126 2 -148 -7
-12 -31 -15 -105 -15 -74 0 -98 3 -105 15 -14 22 -12 134 2 148 8 8 46 12 103
12 57 0 95 -4 103 -12z"/>
<path d="M3541 1544 c-36 -26 -51 -75 -51 -167 0 -71 4 -89 23 -117 32 -48 72
-58 223 -59 128 -1 132 0 138 22 15 58 19 57 -139 57 l-145 0 -11 27 c-19 51
-13 53 156 53 l155 0 0 60 c0 121 -28 140 -202 140 -98 0 -128 -3 -147 -16z
m259 -73 c5 -11 10 -29 10 -40 0 -20 -5 -21 -120 -21 -130 0 -131 1 -110 54 9
26 11 26 109 26 89 0 101 -2 111 -19z"/>
<path d="M4007 1553 c-4 -3 -7 -19 -7 -35 l0 -28 128 0 c140 0 152 -4 152 -54
l0 -31 -132 3 c-124 3 -135 2 -155 -18 -19 -17 -23 -32 -23 -76 0 -30 4 -63
10 -73 14 -28 88 -44 183 -40 78 4 88 7 115 32 27 26 30 27 34 9 3 -11 15 -25
27 -31 21 -12 21 -11 21 129 0 149 -9 188 -49 210 -21 11 -293 14 -304 3z
m264 -200 c9 -9 10 -21 3 -40 -9 -28 -10 -28 -108 -31 -103 -3 -115 2 -116 40
0 39 29 50 121 46 53 -2 93 -8 100 -15z"/>
</g>
</svg> -->

<?xml version="1.0" encoding="utf-8"?>
<!-- Generator: Adobe Illustrator 21.0.0, SVG Export Plug-In . SVG Version: 6.00 Build 0)  -->
<svg version="1.1" id="Layer_1" xmlns="http://www.w3.org/2000/svg" xmlns:xlink="http://www.w3.org/1999/xlink" x="0px" y="0px"
	 viewBox="0 0 4000 2752" style="enable-background:new 0 0 4000 2752;" xml:space="preserve">
<style type="text/css">
	.st0{fill:#263A8E;}
	.st1{fill:#1EA1B8;}
</style>
<g>
	<g>
		<g>
			<path class="st0" d="M735,2119.5v-325.8h313v64.4H798.9v72h242v52.6h-242v72.9H1048v63.9H735z"/>
			<path class="st0" d="M1310.3,2119.5V1958c0-13.3-2.5-23.1-7.6-29.6c-5.1-6.5-14.2-9.7-27.5-9.7h-82.4c-9.2,0-16.1,2-20.8,5.9
				c-4.7,4-8.4,10.2-10.9,18.7v176.1h-63v-255.7h60.6v36.9c6.9-13.6,15-23.1,24.1-28.6c9.2-5.5,21.3-8.3,36.5-8.3h55.9
				c18.6,0,34.2,2.1,46.9,6.2c12.6,4.1,22.7,10.4,30.3,18.9c7.6,8.5,13,19.2,16.3,32c3.3,12.8,5,27.9,5,45.2v153.4H1310.3z"/>
			<path class="st0" d="M1639.9,2049.8c-4.1,8.2-8.4,14.8-13,19.7c-4.6,4.9-9.8,8.7-15.6,11.4c-5.8,2.7-12.5,4.5-20.1,5.4
				c-7.6,0.9-16.6,1.4-27,1.4h-44c-18.6,0-34.2-1.9-46.6-5.7c-12.5-3.8-22.5-9.6-30.1-17.5c-7.6-7.9-13-18-16.3-30.3
				c-3.3-12.3-5-26.8-5-43.6V1966c0-17.4,1.7-32.4,5-45.2c3.3-12.8,8.8-23.4,16.3-32c7.6-8.5,17.6-14.8,30.1-18.9
				c12.5-4.1,28-6.2,46.6-6.2h54.9c5,0,10.8,0.5,17.3,1.4c6.5,0.9,12.9,2.8,19.4,5.4c6.5,2.7,12.5,6.5,18,11.4
				c5.5,4.9,9.7,11.3,12.5,19.2v-37.4h61.1v213.6c0,15.5-1.6,30.2-4.7,44.3c-3.2,14-9.2,26.4-18,36.9c-8.8,10.6-21.2,19-36.9,25.3
				c-15.8,6.3-36.3,9.5-61.6,9.5c-11.4,0-22.7-0.9-34.1-2.6c-11.4-1.7-22.4-4.3-33.1-7.8l7.6-50.2c10.1,3.2,19.6,5.4,28.4,6.6
				c8.8,1.3,18.5,1.9,28.9,1.9c11.7,0,21.4-1.5,29.1-4.5c7.7-3,13.9-7.3,18.5-12.8c4.6-5.5,7.8-12.2,9.7-20.1
				c1.9-7.9,2.8-16.7,2.8-26.5V2049.8z M1639.9,1943.3c-2.5-8.8-6.6-15.1-12.1-18.7c-5.5-3.6-13.3-5.4-23.4-5.4h-80
				c-7.6,0-13.8,0.8-18.7,2.4c-4.9,1.6-8.9,4.3-12.1,8c-3.2,3.8-5.4,8.9-6.6,15.4c-1.3,6.5-1.9,14.8-1.9,24.9v17
				c0,11.1,0.7,19.9,2.1,26.5c1.4,6.6,3.6,11.8,6.6,15.4c3,3.6,6.9,6,11.8,7.1c4.9,1.1,11,1.7,18.2,1.7h76.2c12,0,21-1.6,27-4.7
				c6-3.2,10.3-9.6,12.8-19.4V1943.3z"/>
			<path class="st0" d="M1835.9,2119.5c-30,0-51.2-5-63.7-15.2c-12.5-10.1-18.7-25.9-18.7-47.4V2029c0-21.8,6.4-37.3,19.2-46.6
				c12.8-9.3,33.5-14,62.3-14h88.1c12.6,0,22.3,1,28.9,3.1c6.6,2.1,12.3,4.3,17,6.9v-29.8c0-12-3.6-19.9-10.9-23.7
				c-7.3-3.8-19.6-5.7-36.9-5.7h-147.7l6.2-55.4h149.6c20.8,0,37.9,2.1,51.1,6.4c13.3,4.3,23.6,10,31,17.3
				c7.4,7.3,12.5,15.8,15.4,25.6c2.8,9.8,4.3,20.2,4.3,31.3v175.2c-9.2,0-18-2.9-26.5-8.8c-8.5-5.8-14.1-16.3-16.6-31.5
				c-3.8,11.7-11.1,21.3-21.8,28.9c-10.7,7.6-25.6,11.4-44.5,11.4H1835.9z M1969,2014.8c-5.4-2.2-11.5-3.9-18.5-5.2
				c-6.9-1.3-16.3-1.9-27.9-1.9h-77.2c-10.1,0-17.4,2-21.8,5.9c-4.4,4-6.6,11.4-6.6,22.5c0,10.7,2.2,18.2,6.6,22.3
				c4.4,4.1,11.5,6.2,21.3,6.2h77.2c11.4,0,21.5-1.9,30.5-5.7c9-3.8,14.4-11,16.3-21.8V2014.8z"/>
			<path class="st0" d="M2298.6,2049.8c-4.1,8.2-8.4,14.8-13,19.7c-4.6,4.9-9.8,8.7-15.6,11.4c-5.8,2.7-12.5,4.5-20.1,5.4
				c-7.6,0.9-16.6,1.4-27,1.4h-44c-18.6,0-34.2-1.9-46.6-5.7c-12.5-3.8-22.5-9.6-30.1-17.5c-7.6-7.9-13-18-16.3-30.3
				c-3.3-12.3-5-26.8-5-43.6V1966c0-17.4,1.7-32.4,5-45.2c3.3-12.8,8.8-23.4,16.3-32c7.6-8.5,17.6-14.8,30.1-18.9
				c12.5-4.1,28-6.2,46.6-6.2h54.9c5,0,10.8,0.5,17.3,1.4c6.5,0.9,12.9,2.8,19.4,5.4c6.5,2.7,12.5,6.5,18,11.4
				c5.5,4.9,9.7,11.3,12.5,19.2v-37.4h61.1v213.6c0,15.5-1.6,30.2-4.7,44.3c-3.2,14-9.2,26.4-18,36.9c-8.8,10.6-21.2,19-36.9,25.3
				c-15.8,6.3-36.3,9.5-61.6,9.5c-11.4,0-22.7-0.9-34.1-2.6c-11.4-1.7-22.4-4.3-33.1-7.8l7.6-50.2c10.1,3.2,19.6,5.4,28.4,6.6
				c8.8,1.3,18.5,1.9,28.9,1.9c11.7,0,21.4-1.5,29.1-4.5c7.7-3,13.9-7.3,18.5-12.8c4.6-5.5,7.8-12.2,9.7-20.1
				c1.9-7.9,2.8-16.7,2.8-26.5V2049.8z M2298.6,1943.3c-2.5-8.8-6.6-15.1-12.1-18.7c-5.5-3.6-13.3-5.4-23.4-5.4h-80
				c-7.6,0-13.8,0.8-18.7,2.4c-4.9,1.6-8.9,4.3-12.1,8c-3.2,3.8-5.4,8.9-6.6,15.4c-1.3,6.5-1.9,14.8-1.9,24.9v17
				c0,11.1,0.7,19.9,2.1,26.5c1.4,6.6,3.6,11.8,6.6,15.4c3,3.6,6.9,6,11.8,7.1c4.9,1.1,11,1.7,18.2,1.7h76.2c12,0,21-1.6,27-4.7
				c6-3.2,10.3-9.6,12.8-19.4V1943.3z"/>
			<path class="st0" d="M2516.4,2119.5c-30.9,0-55-7-72.2-21.1c-17.2-14-25.8-37-25.8-68.9v-75.8c0-31.9,8.6-54.8,25.8-68.9
				c17.2-14,41.3-21.1,72.2-21.1h84.8c30.9,0,55.1,7,72.4,21.1c17.4,14,26,37,26,68.9v60.1h-218.3v15.6c0,13.3,3.1,22.4,9.2,27.5
				c6.2,5.1,14.8,7.6,25.8,7.6h178l-8,54.9H2516.4z M2636.2,1957c0-13.9-2.7-23.8-8-29.6c-5.4-5.8-14.4-8.8-27-8.8h-84.8
				c-12.6,0-21.6,2.8-27,8.5c-5.4,5.7-8,14.5-8,26.5v20.4h154.8V1957z"/>
			<path class="st0" d="M2830.3,2119.5c-30,0-51.2-5-63.7-15.2c-12.5-10.1-18.7-25.9-18.7-47.4V2029c0-21.8,6.4-37.3,19.2-46.6
				c12.8-9.3,33.5-14,62.3-14h88.1c12.6,0,22.3,1,28.9,3.1c6.6,2.1,12.3,4.3,17,6.9v-29.8c0-12-3.6-19.9-10.9-23.7
				c-7.3-3.8-19.6-5.7-36.9-5.7h-147.7l6.2-55.4h149.6c20.8,0,37.9,2.1,51.1,6.4c13.3,4.3,23.6,10,31,17.3
				c7.4,7.3,12.5,15.8,15.4,25.6c2.8,9.8,4.3,20.2,4.3,31.3v175.2c-9.2,0-18-2.9-26.5-8.8c-8.5-5.8-14.1-16.3-16.6-31.5
				c-3.8,11.7-11.1,21.3-21.8,28.9c-10.7,7.6-25.6,11.4-44.5,11.4H2830.3z M2963.4,2014.8c-5.4-2.2-11.5-3.9-18.5-5.2
				c-6.9-1.3-16.3-1.9-27.9-1.9h-77.2c-10.1,0-17.4,2-21.8,5.9c-4.4,4-6.6,11.4-6.6,22.5c0,10.7,2.2,18.2,6.6,22.3
				c4.4,4.1,11.5,6.2,21.3,6.2h77.2c11.4,0,21.5-1.9,30.5-5.7c9-3.8,14.4-11,16.3-21.8V2014.8z"/>
			<path class="st0" d="M3081.7,2119.5v-334.3l63-21.3v355.6H3081.7z"/>
			<path class="st0" d="M3202,2119.5v-334.3l63-21.3v355.6H3202z"/>
		</g>
	</g>
	<g>
		<path class="st0" d="M2000.4,1622.1c-7.9,25-38.7,33.9-58,16.2c0,0-196.5-141.8-447.4-164.7c-11.1-1-17.1-13.5-11.1-22.9
			l83.6-130.5c2.6-11.2,13.9-18.1,25.1-15.3c201.1,49,337.9,156.2,337.9,156.2c208.3-387.9,630.2-746.2,630.2-746.2
			S2100.6,1305.2,2000.4,1622.1z"/>
		<g>
			<g>
				<path class="st1" d="M2102.8,1170c33.6-43,69.8-86.7,108.3-130.6V865.8h-149.6v358.5C2074.9,1206.3,2088.6,1188.2,2102.8,1170z"
					/>
				<path class="st1" d="M1845.5,1386c5.2,2.9,10.2,5.7,15,8.5v-290.2H1711v219.2C1765.8,1344.3,1811.8,1367.2,1845.5,1386z"/>
				<path class="st1" d="M1924.6,1435c31.3-56.4,68.5-115,111.3-175.2V985h-149.6v424.8C1902.5,1419.9,1915.4,1428.5,1924.6,1435z"
					/>
			</g>
		</g>
		<path class="st0" d="M1984.1,558.7c-300.9,0-544.8,243.9-544.8,544.8c0,84.2,19.1,164,53.2,235.2l-26.7,88.5l74.6-119.4
			c3.4-9.4,9.6-17.5,17.7-23.3c-18.1-47.2-28-98.5-28-152.1c0-234.8,190.3-425.1,425.1-425.1c152.3,0,285.9,80.1,361,200.5
			c42.3-44,81.8-82.8,115.5-115C2333.3,651.3,2169.5,558.7,1984.1,558.7z"/>
		<path class="st0" d="M2540.1,788l-172.3,241.4c8.2,33,12.6,67.4,12.6,102.9c0,197.9-135.2,364.2-318.3,411.5
			c-14,31.8-25.2,60.9-33.5,87.1h0c-1.8,5.7-4.3,11.1-7.5,15.9c283.6-19,507.8-255.1,507.8-543.5c0-70.1-13.3-137.2-37.4-198.7
			L2540.1,788z"/>
	</g>
</g>
</svg>
