<?xml version="1.0" standalone="no"?>
<!DOCTYPE svg PUBLIC "-//W3C//DTD SVG 20010904//EN"
 "http://www.w3.org/TR/2001/REC-SVG-20010904/DTD/svg10.dtd">
<svg version="1.0" xmlns="http://www.w3.org/2000/svg"
 width="577.000000pt" height="433.000000pt" viewBox="0 0 577.000000 433.000000"
 preserveAspectRatio="xMidYMid meet">
<metadata>
Created by potrace 1.16, written by Peter Selinger 2001-2019
</metadata>
<g transform="translate(0.000000,433.000000) scale(0.100000,-0.100000)"
fill="#000000" stroke="none">
<path d="M2695 3434 c-245 -54 -459 -233 -556 -463 -71 -169 -78 -377 -19
-553 31 -95 32 -97 17 -148 -18 -62 -16 -60 52 49 l53 85 -17 82 c-59 278 66
554 305 678 114 59 163 71 290 71 86 0 129 -5 170 -19 134 -46 241 -118 310
-209 l40 -54 80 76 c44 42 80 81 80 87 0 16 -75 101 -136 154 -68 57 -211 133
-299 156 -86 23 -282 27 -370 8z"/>
<path d="M3445 2988 c-286 -288 -450 -490 -603 -740 l-59 -97 -51 35 c-83 55
-225 123 -338 160 -58 19 -107 34 -110 34 -7 0 -137 -203 -142 -222 -5 -21 -2
-22 103 -38 155 -23 350 -98 509 -194 98 -60 112 -56 146 36 56 155 211 434
393 708 107 160 296 425 369 518 6 6 7 12 2 12 -4 0 -103 -96 -219 -212z"/>
<path d="M3534 2938 l-109 -152 3 -131 c3 -121 2 -137 -24 -214 -61 -185 -196
-327 -371 -391 -60 -22 -63 -25 -81 -74 -38 -101 -41 -94 28 -84 210 28 414
159 533 341 134 204 169 439 98 666 -17 55 -17 58 2 101 29 68 37 90 33 90 -3
0 -53 -68 -112 -152z"/>
<path d="M4483 1698 l-33 -11 0 -243 0 -244 40 0 40 0 0 255 c0 140 -3 255 -7
254 -5 -1 -23 -6 -40 -11z"/>
<path d="M4660 1696 l-35 -13 -3 -241 -2 -242 45 0 45 0 0 255 c0 140 -3 255
-7 254 -5 0 -24 -6 -43 -13z"/>
<path d="M1060 1435 l0 -235 225 0 225 0 0 45 0 45 -180 0 -180 0 0 55 0 55
175 0 175 0 0 35 0 35 -175 0 -175 0 0 55 0 55 180 0 180 0 0 45 0 45 -225 0
-225 0 0 -235z"/>
<path d="M1587 1563 c-4 -3 -7 -87 -7 -185 l0 -178 44 0 44 0 4 135 c2 107 6
138 18 145 22 14 174 12 188 -2 8 -8 12 -55 12 -145 l0 -133 45 0 45 0 0 138
c0 110 -3 144 -18 172 -23 46 -72 63 -175 58 -69 -3 -81 -6 -98 -27 l-19 -23
0 26 c0 23 -4 26 -38 26 -21 0 -42 -3 -45 -7z"/>
<path d="M2140 1563 c-64 -21 -90 -67 -90 -161 0 -67 23 -121 60 -139 15 -7
64 -13 118 -13 79 0 95 3 112 20 29 29 33 25 27 -22 -8 -61 -35 -80 -111 -77
l-61 3 0 -34 c0 -33 2 -35 45 -42 71 -13 143 7 179 47 36 41 44 99 39 290 l-3
130 -42 3 c-41 3 -43 2 -43 -24 0 -24 -2 -26 -12 -11 -7 9 -26 21 -41 27 -28
10 -149 13 -177 3z m214 -89 c18 -18 22 -104 6 -135 -9 -17 -22 -19 -105 -19
-109 0 -115 5 -115 89 0 72 13 81 115 81 63 0 88 -4 99 -16z"/>
<path d="M2567 1548 c-16 -59 -18 -58 121 -58 137 0 152 -5 152 -49 l0 -26
-131 0 -131 0 -24 -28 c-17 -21 -24 -40 -24 -72 0 -96 30 -115 177 -115 92 0
153 16 153 40 0 5 11 -2 25 -15 13 -14 29 -25 35 -25 13 0 14 269 0 304 -19
50 -51 61 -206 64 -141 4 -141 4 -147 -20z m271 -220 c5 -39 -23 -49 -126 -46
-82 3 -87 4 -90 26 -7 50 0 53 110 50 l103 -3 3 -27z"/>
<path d="M3083 1562 c-60 -18 -89 -86 -80 -185 6 -65 26 -103 63 -117 14 -6
65 -10 113 -10 76 0 92 3 116 22 l28 22 -6 -44 c-8 -64 -35 -82 -110 -78 -53
3 -58 1 -64 -19 -9 -37 3 -50 51 -56 67 -10 138 8 171 43 37 38 44 84 45 273
l0 157 -45 0 c-37 0 -45 -3 -45 -19 0 -18 -1 -18 -37 0 -38 19 -150 25 -200
11z m221 -88 c18 -18 22 -104 6 -135 -9 -17 -22 -19 -105 -19 -109 0 -115 5
-115 89 0 72 13 81 115 81 63 0 88 -4 99 -16z"/>
<path d="M3562 1559 c-55 -16 -72 -57 -72 -174 0 -170 25 -188 250 -183 l135
3 6 38 6 37 -142 0 c-149 0 -165 4 -165 47 l0 23 155 0 155 0 0 74 c0 86 -19
119 -78 136 -45 12 -205 12 -250 -1z m226 -81 c7 -7 12 -25 12 -40 l0 -28
-110 0 -110 0 0 28 c0 45 16 52 110 52 54 0 91 -5 98 -12z"/>
<path d="M3998 1530 l-4 -40 126 0 c69 0 131 -4 137 -8 7 -4 15 -21 19 -37 l6
-30 -136 0 c-127 0 -137 -1 -158 -23 -33 -32 -33 -132 0 -164 21 -21 31 -23
146 -23 118 0 126 1 150 24 14 14 26 20 26 13 0 -13 28 -42 41 -42 13 0 11
284 -2 314 -20 42 -74 56 -218 56 l-129 0 -4 -40z m272 -180 c13 -8 13 -13 0
-37 -15 -27 -19 -28 -107 -31 -84 -2 -93 -1 -103 18 -8 14 -8 26 0 40 10 18
21 20 103 20 51 0 99 -5 107 -10z"/>
</g>
</svg>
